mtllib new-0.mtl
v -0.350743 0.728532 0.489598
v -0.357879 0.728532 0.383220
v -0.434646 0.728532 0.457299
v 0.419499 0.728532 0.383220
v -0.357879 0.728532 -0.276374
v -0.434646 0.716754 0.457299
v -0.264484 0.728532 0.514945
v 0.419499 0.763868 0.383220
v -0.515635 0.728532 -0.394450
v -0.357879 0.763868 -0.276374
v -0.350743 0.716754 0.489598
v -0.515635 0.716754 0.418264
v -0.176446 0.728532 0.533172
v -0.357879 0.763868 0.383220
v 0.419499 0.728532 -0.276374
v -0.515635 0.728532 0.418264
v 0.520869 0.728532 -0.394450
v -0.428550 0.716754 0.383220
v -0.428550 0.716754 -0.358823
v -0.264484 0.716754 0.514945
v -0.087214 0.728532 0.544157
v 0.419499 0.763868 -0.276374
v 0.439880 0.728532 0.457299
v 0.520869 0.716754 -0.394450
v -0.357879 0.716754 0.383220
v -0.515635 0.716754 -0.394450
v 0.419499 0.716754 -0.276374
v -0.176446 0.716754 0.533172
v 0.002617 0.728532 0.547827
v 0.355976 0.728532 0.489598
v 0.520869 0.728532 0.418264
v -0.468153 0.716754 0.410342
v 0.485902 0.716754 0.410342
v -0.087214 0.716754 0.544157
v 0.092447 0.728532 0.544157
v 0.269718 0.728532 0.514945
v 0.355976 0.716754 0.489598
v 0.520869 0.716754 0.418264
v -0.468153 0.716754 -0.378815
v 0.419499 0.716754 0.383220
v -0.357879 0.716754 -0.276374
v 0.466613 0.716754 -0.358823
v 0.002617 0.716754 0.547827
v 0.181679 0.728532 0.533172
v 0.269718 0.716754 0.514945
v 0.439880 0.716754 0.457299
v 0.466613 0.716754 0.383220
v 0.485902 0.716754 -0.378815
v 0.092447 0.716754 0.544157
v 0.181679 0.716754 0.533172
vn 0.000000 1.000000 0.000000
vn 0.000000 -1.000000 0.000000
vn -0.397048 0.000000 0.917798
vn -0.320861 0.000000 0.947126
vn 0.397048 0.000000 -0.917798
vn 0.320861 0.000000 -0.947126
vn 0.000000 0.000000 1.000000
vn 0.000000 0.000000 -1.000000
vn -1.000000 0.000000 0.000000
vn 1.000000 0.000000 0.000000
vn -0.434180 0.000000 0.900826
vn 0.434180 0.000000 -0.900826
vn -0.242536 0.000000 0.970142
vn 0.242536 0.000000 -0.970142
vn -0.162594 0.000000 0.986693
vn 0.162594 0.000000 -0.986693
vn -0.081569 0.000000 0.996668
vn 0.081569 0.000000 -0.996668
vn 0.320861 0.000000 0.947126
vn 0.397048 0.000000 0.917798
vn -0.320861 0.000000 -0.947126
vn -0.397048 0.000000 -0.917798
vn 0.081569 0.000000 0.996668
vn -0.081569 0.000000 -0.996668
vn 0.242536 0.000000 0.970142
vn -0.242536 0.000000 -0.970142
vn 0.434180 0.000000 0.900826
vn -0.434180 0.000000 -0.900826
vn 0.162594 0.000000 0.986693
vn -0.162594 0.000000 -0.986693
usemtl material-0
f 1//1 2//1 3//1
f 2//1 1//1 4//1
f 3//2 2//2 1//2
f 4//2 1//2 2//2
f 5//1 3//1 2//1
f 2//2 3//2 5//2
f 6//3 1//4 3//3
f 3//5 1//6 6//5
f 4//1 1//1 7//1
f 7//2 1//2 4//2
f 8//7 2//7 4//7
f 4//8 2//8 8//8
f 9//1 3//1 5//1
f 5//2 3//2 9//2
f 2//9 10//9 5//9
f 5//10 10//10 2//10
f 1//4 6//3 11//4
f 11//6 6//5 1//6
f 3//3 12//11 6//3
f 6//5 12//12 3//5
f 11//4 7//13 1//4
f 1//6 7//14 11//6
f 4//1 7//1 13//1
f 13//2 7//2 4//2
f 2//7 8//7 14//7
f 14//8 8//8 2//8
f 15//10 8//10 4//10
f 4//9 8//9 15//9
f 3//1 9//1 16//1
f 16//2 9//2 3//2
f 9//1 5//1 17//1
f 17//2 5//2 9//2
f 10//9 2//9 14//9
f 14//10 2//10 10//10
f 10//8 15//8 5//8
f 5//7 15//7 10//7
f 6//2 18//2 11//2
f 11//1 18//1 6//1
f 12//11 3//3 16//11
f 16//12 3//5 12//12
f 12//2 19//2 6//2
f 6//1 19//1 12//1
f 7//13 11//4 20//13
f 20//14 11//6 7//14
f 20//13 13//15 7//13
f 7//14 13//16 20//14
f 4//1 13//1 21//1
f 21//2 13//2 4//2
f 14//2 22//2 8//2
f 8//10 15//10 22//10
f 22//9 15//9 8//9
f 4//1 23//1 15//1
f 15//2 23//2 4//2
f 9//9 12//9 16//9
f 16//10 12//10 9//10
f 17//1 5//1 15//1
f 15//2 5//2 17//2
f 24//8 9//8 17//8
f 17//7 9//7 24//7
f 22//2 14//2 10//2
f 15//8 10//8 22//8
f 22//7 10//7 15//7
f 18//2 6//2 19//2
f 19//1 6//1 18//1
f 11//2 18//2 25//2
f 25//1 18//1 11//1
f 26//2 19//2 12//2
f 12//1 19//1 26//1
f 11//2 27//2 20//2
f 20//1 27//1 11//1
f 13//15 20//13 28//15
f 28//16 20//14 13//16
f 28//15 21//17 13//15
f 13//16 21//18 28//16
f 4//1 21//1 29//1
f 29//2 21//2 4//2
f 4//1 30//1 23//1
f 23//2 30//2 4//2
f 17//1 15//1 23//1
f 23//2 15//2 17//2
f 12//9 9//9 26//9
f 26//10 9//10 12//10
f 9//8 24//8 26//8
f 26//7 24//7 9//7
f 31//10 24//10 17//10
f 17//9 24//9 31//9
f 25//2 27//2 11//2
f 11//1 27//1 25//1
f 19//2 26//2 24//2
f 24//1 26//1 19//1
f 20//2 27//2 28//2
f 28//1 27//1 20//1
f 21//17 28//15 34//17
f 34//18 28//16 21//18
f 34//17 29//7 21//17
f 21//18 29//8 34//18
f 4//1 29//1 35//1
f 35//2 29//2 4//2
f 4//1 36//1 30//1
f 30//2 36//2 4//2
f 37//19 23//20 30//19
f 30//21 23//22 37//21
f 17//1 23//1 31//1
f 31//2 23//2 17//2
f 24//10 31//10 38//10
f 38//9 31//9 24//9
f 27//2 25//2 41//2
f 41//1 25//1 27//1
f 19//2 24//2 42//2
f 42//1 24//1 19//1
f 28//2 27//2 34//2
f 34//1 27//1 28//1
f 29//7 34//17 43//7
f 43//8 34//18 29//8
f 43//7 35//23 29//7
f 29//8 35//24 43//8
f 4//1 35//1 44//1
f 44//2 35//2 4//2
f 4//1 44//1 36//1
f 36//2 44//2 4//2
f 45//25 30//19 36//25
f 36//26 30//21 45//26
f 23//20 37//19 46//20
f 46//22 37//21 23//22
f 30//19 45//25 37//19
f 37//21 45//26 30//21
f 46//20 31//27 23//20
f 23//22 31//28 46//22
f 31//27 46//20 38//27
f 38//28 46//22 31//28
f 38//2 47//2 24//2
f 24//1 47//1 38//1
f 42//2 24//2 47//2
f 47//1 24//1 42//1
f 34//2 27//2 43//2
f 43//1 27//1 34//1
f 35//23 43//7 49//23
f 49//24 43//8 35//24
f 49//23 44//29 35//23
f 35//24 44//30 49//24
f 50//29 36//25 44//29
f 44//30 36//26 50//30
f 36//25 50//29 45//25
f 45//26 50//30 36//26
f 37//2 40//2 46//2
f 46//1 40//1 37//1
f 45//2 27//2 37//2
f 37//1 27//1 45//1
f 46//2 47//2 38//2
f 38//1 47//1 46//1
f 46//2 40//2 47//2
f 47//1 40//1 46//1
f 43//2 27//2 49//2
f 49//1 27//1 43//1
f 44//29 49//23 50//29
f 50//30 49//24 44//30
f 50//2 27//2 45//2
f 45//1 27//1 50//1
f 37//2 27//2 40//2
f 40//1 27//1 37//1
f 49//2 27//2 50//2
f 50//1 27//1 49//1
usemtl material-1
f 8//1 22//1 14//1
f 10//1 14//1 22//1
usemtl material-2
f 18//2 32//2 19//2
f 33//2 18//2 25//2
f 32//2 18//2 33//2
f 39//2 19//2 32//2
f 33//2 25//2 40//2
f 19//2 39//2 48//2
f 33//2 40//2 47//2
f 19//2 48//2 42//2
f 33//2 47//2 48//2
f 42//2 48//2 47//2
usemtl material-3
f 19//1 32//1 18//1
f 25//1 18//1 33//1
f 33//1 18//1 32//1
f 32//1 19//1 39//1
f 40//1 25//1 33//1
f 48//1 39//1 19//1
f 47//1 40//1 33//1
f 42//1 48//1 19//1
f 48//1 47//1 33//1
f 47//1 48//1 42//1