# SSTK version 0.8.0
# 2
mtllib original-2.mtl
o mesh2/mesh2-geometry#mesh2-geometry
v -0.491710 -0.761396 -0.266037
v -0.491710 -0.797808 -0.262510
v -0.491710 -0.779370 -0.261877
v -0.491710 -0.815453 -0.267894
v -0.468153 -0.779370 -0.261877
v -0.468153 -0.761396 -0.266037
v -0.491710 -0.745112 -0.274707
v -0.468153 -0.797808 -0.262510
v -0.468153 -0.745112 -0.274707
v -0.491710 -0.831105 -0.277661
v -0.468153 -0.815453 -0.267894
v -0.468153 -0.731627 -0.287297
v -0.491710 -0.731627 -0.287297
v -0.468153 -0.831105 -0.277661
v -0.491710 -0.843694 -0.291146
v -0.491710 -0.721859 -0.302948
v -0.468153 -0.843694 -0.291146
v -0.468153 -0.721859 -0.302948
v -0.491710 -0.852365 -0.307431
v -0.468153 -0.852365 -0.307431
v -0.491710 -0.716475 -0.320594
v -0.468153 -0.716475 -0.320594
v -0.491710 -0.856525 -0.325404
v -0.468153 -0.856525 -0.325404
v -0.491710 -0.715842 -0.339032
v -0.468153 -0.715842 -0.339032
v -0.491710 -0.855892 -0.343842
v -0.468153 -0.855892 -0.343842
v -0.491710 -0.720003 -0.357005
v -0.468153 -0.720003 -0.357005
v -0.491710 -0.850508 -0.361488
v -0.468153 -0.850508 -0.361488
v -0.491710 -0.728673 -0.373290
v -0.468153 -0.728673 -0.373290
v -0.491710 -0.840741 -0.377139
v -0.468153 -0.840741 -0.377139
v -0.491710 -0.741263 -0.386775
v -0.468153 -0.741263 -0.386775
v -0.491710 -0.827255 -0.389729
v -0.468153 -0.756914 -0.396543
v -0.468153 -0.827255 -0.389729
v -0.491710 -0.756914 -0.396543
v -0.491710 -0.810971 -0.398399
v -0.468153 -0.774560 -0.401926
v -0.468153 -0.810971 -0.398399
v -0.491710 -0.774560 -0.401926
v -0.491710 -0.792998 -0.402560
v -0.468153 -0.792998 -0.402560
vn -1 0 0
vn 0 -0.16448104081095888 0.9863802447402035
vn 0 0.09641799339512641 0.9953409318166602
vn 0 0.3507450019525971 0.9364710052133342
vn 0 -0.4141702053247234 0.9101994512310346
vn 0 0.5811707458061416 0.813781644066228
vn 0 0.771989840458666 0.6356348686381227
vn 0 -0.6356348686381227 0.771989840458666
vn 0 0.9101994512310346 0.4141702053247234
vn 0 -0.813781644066228 0.5811707458061416
vn 0 -0.9364710052133342 0.3507450019525971
vn 0 0.9863802447402035 0.16448104081095888
vn 0 -0.9953409318166602 0.09641799339512641
vn 0 0.9953409318166602 -0.09641799339512641
vn 0 -0.9863802447402035 -0.16448104081095888
vn 0 0.9364710052133342 -0.3507450019525971
vn 0 -0.9101994512310346 -0.4141702053247234
vn 0 0.813781644066228 -0.5811707458061416
vn 0 -0.771989840458666 -0.6356348686381227
vn 0 0.6356348686381227 -0.771989840458666
vn 0 -0.5811707458061416 -0.813781644066228
vn 0 0.4141702053247234 -0.9101994512310346
vn 0 -0.3507450019525971 -0.9364710052133342
vn 0 0.16448104081095888 -0.9863802447402035
vn 0 -0.09641799339512641 -0.9953409318166602
vn 1 0 0
usemtl material_0_0
f 1//1 2//1 3//1
f 2//1 1//1 4//1
f 2//2 5//3 3//3
f 3//3 6//4 1//4
f 4//1 1//1 7//1
f 4//5 8//2 2//2
f 5//3 2//2 8//2
f 6//4 3//3 5//3
f 9//6 1//4 6//4
f 1//4 9//6 7//6
f 4//1 7//1 10//1
f 8//2 4//5 11//5
f 12//7 7//6 9//6
f 10//1 7//1 13//1
f 10//8 11//5 4//5
f 7//6 12//7 13//7
f 10//1 13//1 15//1
f 11//5 10//8 14//8
f 12//7 16//9 13//7
f 15//1 13//1 16//1
f 17//10 10//8 15//10
f 10//8 17//10 14//8
f 16//9 12//7 18//9
f 15//1 16//1 19//1
f 15//10 20//11 17//10
f 18//9 21//12 16//9
f 19//1 16//1 21//1
f 20//11 15//10 19//11
f 21//12 18//9 22//12
f 19//1 21//1 23//1
f 19//11 24//13 20//11
f 22//12 25//14 21//12
f 23//1 21//1 25//1
f 24//13 19//11 23//13
f 25//14 22//12 26//14
f 23//1 25//1 27//1
f 23//13 28//15 24//13
f 26//14 29//16 25//14
f 27//1 25//1 29//1
f 28//15 23//13 27//15
f 29//16 26//14 30//16
f 27//1 29//1 31//1
f 27//15 32//17 28//15
f 30//16 33//18 29//16
f 31//1 29//1 33//1
f 32//17 27//15 31//17
f 33//18 30//16 34//18
f 31//1 33//1 35//1
f 31//17 36//19 32//17
f 34//18 37//20 33//18
f 35//1 33//1 37//1
f 36//19 31//17 35//19
f 37//20 34//18 38//20
f 35//1 37//1 39//1
f 39//21 36//19 35//19
f 40//22 37//20 38//20
f 39//1 37//1 42//1
f 36//19 39//21 41//21
f 37//20 40//22 42//22
f 39//1 42//1 43//1
f 43//23 41//21 39//21
f 44//24 42//22 40//22
f 43//1 42//1 46//1
f 41//21 43//23 45//23
f 42//22 44//24 46//24
f 43//1 46//1 47//1
f 47//25 45//23 43//23
f 48//25 46//24 44//24
f 46//24 48//25 47//25
f 45//23 47//25 48//25
usemtl material_1_0
f 3//26 2//26 1//26
f 4//26 1//26 2//26
f 3//25 5//25 2//24
f 1//23 6//23 3//25
f 7//26 1//26 4//26
f 2//24 8//24 4//22
f 8//24 2//24 5//25
f 5//25 3//25 6//23
f 6//23 1//23 9//21
f 7//21 9//21 1//23
f 10//26 7//26 4//26
f 11//22 4//22 8//24
f 8//26 6//26 5//26
f 5//1 6//1 8//1
f 6//26 11//26 9//26
f 9//1 11//1 6//1
f 9//21 7//21 12//19
f 13//26 7//26 10//26
f 4//22 11//22 10//20
f 6//26 8//26 11//26
f 11//1 8//1 6//1
f 9//26 11//26 14//26
f 14//1 11//1 9//1
f 13//19 12//19 7//21
f 9//26 14//26 12//26
f 12//1 14//1 9//1
f 15//26 13//26 10//26
f 14//20 10//20 11//22
f 13//19 16//17 12//19
f 12//26 14//26 17//26
f 17//1 14//1 12//1
f 16//26 13//26 15//26
f 15//18 10//20 17//18
f 14//20 17//18 10//20
f 18//17 12//19 16//17
f 12//26 17//26 18//26
f 18//1 17//1 12//1
f 19//26 16//26 15//26
f 17//18 20//16 15//18
f 16//17 21//15 18//17
f 18//26 17//26 20//26
f 20//1 17//1 18//1
f 21//26 16//26 19//26
f 19//16 15//18 20//16
f 22//15 18//17 21//15
f 18//26 20//26 22//26
f 22//1 20//1 18//1
f 23//26 21//26 19//26
f 20//16 24//14 19//16
f 21//15 25//13 22//15
f 22//26 20//26 24//26
f 24//1 20//1 22//1
f 25//26 21//26 23//26
f 23//14 19//16 24//14
f 26//13 22//15 25//13
f 22//26 24//26 26//26
f 26//1 24//1 22//1
f 27//26 25//26 23//26
f 24//14 28//12 23//14
f 25//13 29//11 26//13
f 26//26 24//26 28//26
f 28//1 24//1 26//1
f 29//26 25//26 27//26
f 27//12 23//14 28//12
f 30//11 26//13 29//11
f 26//26 28//26 30//26
f 30//1 28//1 26//1
f 31//26 29//26 27//26
f 28//12 32//9 27//12
f 29//11 33//10 30//11
f 30//26 28//26 32//26
f 32//1 28//1 30//1
f 33//26 29//26 31//26
f 31//9 27//12 32//9
f 34//10 30//11 33//10
f 30//26 32//26 34//26
f 34//1 32//1 30//1
f 35//26 33//26 31//26
f 32//9 36//7 31//9
f 33//10 37//8 34//10
f 34//26 32//26 36//26
f 36//1 32//1 34//1
f 37//26 33//26 35//26
f 35//7 31//9 36//7
f 38//8 34//10 37//8
f 34//26 36//26 38//26
f 38//1 36//1 34//1
f 39//26 37//26 35//26
f 35//7 36//7 39//6
f 38//8 37//8 40//5
f 38//26 36//26 41//26
f 41//1 36//1 38//1
f 42//26 37//26 39//26
f 41//6 39//6 36//7
f 42//5 40//5 37//8
f 38//26 41//26 40//26
f 40//1 41//1 38//1
f 43//26 42//26 39//26
f 39//6 41//6 43//4
f 40//5 42//5 44//2
f 40//26 41//26 45//26
f 45//1 41//1 40//1
f 46//26 42//26 43//26
f 45//4 43//4 41//6
f 46//2 44//2 42//5
f 40//26 45//26 44//26
f 44//1 45//1 40//1
f 47//26 46//26 43//26
f 43//4 45//4 47//3
f 44//2 46//2 48//3
f 44//26 45//26 48//26
f 48//1 45//1 44//1
f 47//3 48//3 46//2
f 48//3 47//3 45//4
