# SSTK version 0.8.0
# 3
mtllib original-3.mtl
o mesh3/mesh3-geometry#mesh3-geometry
v 0.509459 -0.826225 -0.274169
v 0.485902 -0.841303 -0.287526
v 0.509459 -0.841303 -0.287526
v 0.485902 -0.826225 -0.274169
v 0.509459 -0.852410 -0.304332
v 0.509459 -0.732446 -0.279842
v 0.509459 -0.808203 -0.265168
v 0.485902 -0.732446 -0.279842
v 0.485902 -0.852410 -0.304332
v 0.509459 -0.719088 -0.294920
v 0.509459 -0.749251 -0.268735
v 0.485902 -0.808203 -0.265168
v 0.485902 -0.749251 -0.268735
v 0.485902 -0.719088 -0.294920
v 0.509459 -0.858789 -0.323439
v 0.509459 -0.710088 -0.312942
v 0.509459 -0.788466 -0.261139
v 0.509459 -0.768359 -0.262356
v 0.485902 -0.710088 -0.312942
v 0.485902 -0.858789 -0.323439
v 0.485902 -0.768359 -0.262356
v 0.485902 -0.788466 -0.261139
v 0.509459 -0.860005 -0.343546
v 0.509459 -0.706059 -0.332679
v 0.485902 -0.706059 -0.332679
v 0.485902 -0.860005 -0.343546
v 0.509459 -0.855976 -0.363283
v 0.509459 -0.707275 -0.352786
v 0.485902 -0.707275 -0.352786
v 0.485902 -0.855976 -0.363283
v 0.509459 -0.846976 -0.381305
v 0.509459 -0.713655 -0.371893
v 0.485902 -0.713655 -0.371893
v 0.485902 -0.846976 -0.381305
v 0.509459 -0.833618 -0.396383
v 0.509459 -0.724762 -0.388699
v 0.485902 -0.724762 -0.388699
v 0.485902 -0.833618 -0.396383
v 0.485902 -0.816813 -0.407490
v 0.509459 -0.739840 -0.402056
v 0.485902 -0.739840 -0.402056
v 0.509459 -0.816813 -0.407490
v 0.485902 -0.797706 -0.413869
v 0.485902 -0.757861 -0.411057
v 0.509459 -0.757861 -0.411057
v 0.509459 -0.797706 -0.413869
v 0.485902 -0.777598 -0.415086
v 0.509459 -0.777598 -0.415086
vn 0 -0.5597419710465079 0.8286669571359596
vn 0 -0.7551439761310321 0.6555589792787642
vn 0 -0.8990840605838825 0.43777602949910077
vn 1 0 0
vn 0 -0.32619395311859317 0.9453028641387189
vn -1 0 0
vn 0 -0.9817532953654322 0.1901590572103116
vn 0 0.6555589792787642 0.7551439761310321
vn 0 0.43777602949910077 0.8990840605838825
vn 0 0.8286669571359596 0.5597419710465079
vn 0 -0.07041697485364527 0.9975176437800292
vn 0 0.9453028641387189 0.32619395311859317
vn 0 0.1901590572103116 0.9817532953654322
vn 0 -0.9975176437800292 -0.07041697485364527
vn 0 0.9975176437800292 0.07041697485364527
vn 0 -0.9453028641387189 -0.32619395311859317
vn 0 0.9817532953654322 -0.1901590572103116
vn 0 -0.8286669571359596 -0.5597419710465079
vn 0 0.8990840605838825 -0.43777602949910077
vn 0 -0.6555589792787642 -0.7551439761310321
vn 0 0.7551439761310321 -0.6555589792787642
vn 0 -0.43777602949910077 -0.8990840605838825
vn 0 0.5597419710465079 -0.8286669571359596
vn 0 -0.1901590572103116 -0.9817532953654322
vn 0 0.32619395311859317 -0.9453028641387189
vn 0 0.07041697485364527 -0.9975176437800292
usemtl material_0_0
f 1//1 2//2 3//2
f 2//2 1//1 4//1
f 2//2 5//3 3//2
f 6//4 1//4 3//4
f 7//5 4//1 1//1
f 4//6 8//6 2//6
f 5//3 2//2 9//3
f 10//4 3//4 5//4
f 11//4 1//4 6//4
f 6//4 3//4 10//4
f 4//1 7//5 12//5
f 11//4 7//4 1//4
f 4//6 13//6 8//6
f 2//6 8//6 14//6
f 2//6 14//6 9//6
f 9//3 15//7 5//3
f 10//4 5//4 16//4
f 6//8 13//9 11//9
f 14//10 6//8 10//10
f 17//11 12//5 7//5
f 12//6 13//6 4//6
f 18//4 7//4 11//4
f 13//9 6//8 8//8
f 6//8 14//10 8//8
f 9//6 14//6 19//6
f 15//7 9//3 20//7
f 16//4 5//4 15//4
f 19//12 10//10 16//12
f 21//13 11//9 13//9
f 10//10 19//12 14//10
f 12//5 17//11 22//11
f 7//4 18//4 17//4
f 12//6 21//6 13//6
f 11//9 21//13 18//13
f 9//6 19//6 20//6
f 20//7 23//14 15//7
f 16//4 15//4 24//4
f 16//12 25//15 19//12
f 18//13 22//11 17//11
f 21//6 12//6 22//6
f 22//11 18//13 21//13
f 20//6 19//6 25//6
f 23//14 20//7 26//14
f 24//4 15//4 23//4
f 25//15 16//12 24//15
f 20//6 25//6 26//6
f 26//14 27//16 23//14
f 24//4 23//4 28//4
f 24//15 29//17 25//15
f 26//6 25//6 29//6
f 27//16 26//14 30//16
f 28//4 23//4 27//4
f 29//17 24//15 28//17
f 26//6 29//6 30//6
f 30//16 31//18 27//16
f 28//4 27//4 32//4
f 28//17 33//19 29//17
f 30//6 29//6 33//6
f 31//18 30//16 34//18
f 32//4 27//4 31//4
f 33//19 28//17 32//19
f 30//6 33//6 34//6
f 34//18 35//20 31//18
f 32//4 31//4 36//4
f 32//19 37//21 33//19
f 34//6 33//6 37//6
f 35//20 34//18 38//20
f 36//4 31//4 35//4
f 37//21 32//19 36//21
f 34//6 37//6 38//6
f 39//22 35//20 38//20
f 36//4 35//4 40//4
f 40//23 37//21 36//21
f 38//6 37//6 41//6
f 35//20 39//22 42//22
f 38//6 41//6 39//6
f 40//4 35//4 42//4
f 37//21 40//23 41//23
f 43//24 42//22 39//22
f 39//6 41//6 44//6
f 40//4 42//4 45//4
f 45//25 41//23 40//23
f 42//22 43//24 46//24
f 39//6 44//6 43//6
f 41//23 45//25 44//25
f 45//4 42//4 46//4
f 47//26 46//24 43//24
f 43//6 44//6 47//6
f 48//26 44//25 45//25
f 45//4 46//4 48//4
f 46//24 47//26 48//26
f 44//25 48//26 47//26
usemtl material_1_0
f 3//21 2//21 1//23
f 4//23 1//23 2//21
f 3//21 5//19 2//21
f 3//6 1//6 6//6
f 1//23 4//23 7//25
f 2//4 8//4 4//4
f 9//19 2//21 5//19
f 5//6 3//6 10//6
f 6//6 1//6 11//6
f 10//6 3//6 6//6
f 12//25 7//25 4//23
f 1//6 7//6 11//6
f 8//4 13//4 4//4
f 14//4 8//4 2//4
f 9//4 14//4 2//4
f 5//19 15//17 9//19
f 16//6 5//6 10//6
f 11//22 13//22 6//20
f 10//18 6//20 14//18
f 7//25 12//25 17//26
f 4//4 13//4 12//4
f 11//6 7//6 18//6
f 8//20 6//20 13//22
f 8//20 14//18 6//20
f 19//4 14//4 9//4
f 20//17 9//19 15//17
f 15//6 5//6 16//6
f 16//16 10//18 19//16
f 13//22 11//22 21//24
f 14//18 19//16 10//18
f 22//26 17//26 12//25
f 17//6 18//6 7//6
f 13//4 21//4 12//4
f 18//24 21//24 11//22
f 20//4 19//4 9//4
f 15//17 23//15 20//17
f 24//6 15//6 16//6
f 19//16 25//14 16//16
f 17//26 22//26 18//24
f 22//4 12//4 21//4
f 21//24 18//24 22//26
f 25//4 19//4 20//4
f 26//15 20//17 23//15
f 23//6 15//6 24//6
f 24//14 16//16 25//14
f 26//4 25//4 20//4
f 23//15 27//12 26//15
f 28//6 23//6 24//6
f 25//14 29//7 24//14
f 29//4 25//4 26//4
f 30//12 26//15 27//12
f 27//6 23//6 28//6
f 28//7 24//14 29//7
f 30//4 29//4 26//4
f 27//12 31//10 30//12
f 32//6 27//6 28//6
f 29//7 33//3 28//7
f 33//4 29//4 30//4
f 34//10 30//12 31//10
f 31//6 27//6 32//6
f 32//3 28//7 33//3
f 34//4 33//4 30//4
f 31//10 35//8 34//10
f 36//6 31//6 32//6
f 33//3 37//2 32//3
f 37//4 33//4 34//4
f 38//8 34//10 35//8
f 35//6 31//6 36//6
f 36//2 32//3 37//2
f 38//4 37//4 34//4
f 38//8 35//8 39//9
f 40//6 35//6 36//6
f 36//2 37//2 40//1
f 41//4 37//4 38//4
f 42//9 39//9 35//8
f 39//4 41//4 38//4
f 42//6 35//6 40//6
f 41//1 40//1 37//2
f 39//9 42//9 43//13
f 44//4 41//4 39//4
f 45//6 42//6 40//6
f 40//1 41//1 45//5
f 46//13 43//13 42//9
f 43//4 44//4 39//4
f 44//5 45//5 41//1
f 46//6 42//6 45//6
f 43//13 46//13 47//11
f 47//4 44//4 43//4
f 45//5 44//5 48//11
f 48//6 46//6 45//6
f 48//11 47//11 46//13
f 47//11 48//11 44//5
