# SSTK version 0.8.0
# 8
mtllib original-8.mtl
o Group_1_2/Group_1/mesh25/mesh25-geometry#mesh25-geometry
v -0.378178 -0.718188 -0.399313
v -0.386405 0.077204 0.010414
v -0.378178 0.061560 0.011472
v -0.386405 -0.714353 -0.406593
v -0.355700 0.061560 0.011472
v -0.366939 0.055834 0.011859
v -0.378178 -0.700041 -0.433759
v -0.381539 -0.722987 -0.414317
v -0.389417 0.087444 0.003105
v -0.347472 0.077204 0.010414
v -0.366939 -0.719592 -0.396649
v -0.386405 -0.703876 -0.426480
v -0.366939 -0.698638 -0.436423
v -0.375368 -0.725863 -0.408857
v -0.389417 -0.709115 -0.416536
v -0.344461 0.087444 0.003105
v -0.355700 -0.718188 -0.399313
v -0.378178 0.097031 -0.013847
v -0.375368 -0.712253 -0.434692
v -0.366939 -0.711201 -0.436690
v -0.381539 -0.715129 -0.429232
v -0.383797 -0.719058 -0.421774
v -0.386405 0.097683 -0.004204
v -0.347472 0.097683 -0.004204
v -0.347472 -0.714353 -0.406593
v -0.355700 -0.700041 -0.433759
v -0.366939 -0.726916 -0.406859
v -0.366939 0.096793 -0.017377
v -0.344461 -0.709115 -0.416536
v -0.347472 -0.703876 -0.426480
v -0.352339 -0.722987 -0.414317
v -0.358510 -0.725863 -0.408857
v -0.355700 0.097031 -0.013847
v -0.358510 -0.712253 -0.434692
v -0.350080 -0.719058 -0.421774
v -0.352339 -0.715129 -0.429232
vn 0.5000001118975377 0.4036490903346585 -0.766203171472458
vn 0.8660251505766721 0.23304704052012562 -0.44236807691498653
vn -0.5000001118975377 -0.4036490903346585 0.766203171472458
vn -0.8660251505766721 -0.23304704052012562 0.44236807691498653
vn 0 -0.06747499765639073 -0.9977209653461583
vn 0 0.06747499765639073 0.9977209653461583
vn 0 0.4660940845818684 -0.8847351605524617
vn 0 -0.4660940845818684 0.8847351605524617
vn 0 -0.8847351605524617 -0.4660940845818684
vn 0 0.8847351605524617 0.4660940845818684
vn 0.44721394438984385 0.756699905905886 -0.4768699407021801
vn 0.7745968940452219 0.6041089173657592 -0.18722197439046942
vn -0.7745968940452219 -0.6041089173657592 0.18722197439046942
vn -0.44721394438984385 -0.756699905905886 0.4768699407021801
vn 1 0 0
vn -1 0 0
vn 0.8944271224765974 0.39566605417974343 0.20844302854273122
vn -0.8944271224765974 -0.39566605417974343 -0.20844302854273122
vn 0 -0.58097225716365 -0.8139233602779646
vn 0 0.58097225716365 0.8139233602779646
vn -0.5000001118975377 0.4036490903346585 -0.766203171472458
vn 0.5000001118975377 -0.4036490903346585 0.766203171472458
vn -0.8660251505766721 0.23304704052012562 -0.44236807691498653
vn 0.8660251505766721 -0.23304704052012562 0.44236807691498653
vn 0 0.8125526756481318 -0.5828877673249474
vn 0 -0.8125526756481318 0.5828877673249474
vn 0.7745968940452219 0.18722197439046942 0.6041089173657592
vn 0.44721372205541643 0.034630978476749466 0.893756444527861
vn -0.44721372205541643 -0.034630978476749466 -0.893756444527861
vn -0.7745968940452219 -0.18722197439046942 -0.6041089173657592
vn 0 -0.021220995952456388 0.9997748093099694
vn 0 0.021220995952456388 -0.9997748093099694
vn -0.44721394438984385 0.756699905905886 -0.4768699407021801
vn 0.44721394438984385 -0.756699905905886 0.4768699407021801
vn -0.44721372205541643 0.034630978476749466 0.893756444527861
vn 0.44721372205541643 -0.034630978476749466 -0.893756444527861
vn -0.7745968940452219 0.6041089173657592 -0.18722197439046942
vn 0.7745968940452219 -0.6041089173657592 0.18722197439046942
vn 0 -0.9977209653461583 0.06747499765639073
vn 0 0.9977209653461583 -0.06747499765639073
vn -0.8944271224765974 0.39566605417974343 0.20844302854273122
vn 0.8944271224765974 -0.39566605417974343 -0.20844302854273122
vn -0.7745968940452219 0.18722197439046942 0.6041089173657592
vn 0.7745968940452219 -0.18722197439046942 -0.6041089173657592
usemtl material_0_0
f 1//1 2//2 3//1
f 2//2 1//1 4//2
f 3//3 2//4 1//3
f 4//4 1//3 2//4
f 5//5 3//5 2//5
f 2//6 3//6 5//6
f 6//7 1//1 3//1
f 3//3 1//3 6//8
f 4//9 7//9 1//9
f 1//10 7//10 4//10
f 1//11 8//12 4//12
f 4//13 8//13 1//14
f 4//2 9//15 2//2
f 2//4 9//16 4//4
f 3//5 5//5 6//5
f 6//6 5//6 3//6
f 5//5 2//5 10//5
f 10//6 2//6 5//6
f 1//1 6//7 11//7
f 11//8 6//8 1//3
f 4//9 12//9 7//9
f 7//10 12//10 4//10
f 1//9 7//9 13//9
f 13//10 7//10 1//10
f 8//12 1//11 14//11
f 14//14 1//14 8//13
f 8//12 15//17 4//12
f 4//13 15//18 8//13
f 9//15 4//2 15//15
f 15//16 4//4 9//16
f 16//19 2//19 9//19
f 9//20 2//20 16//20
f 17//21 6//7 5//21
f 5//22 6//8 17//22
f 2//19 16//19 10//19
f 10//20 16//20 2//20
f 10//23 17//21 5//21
f 5//22 17//22 10//24
f 6//7 17//21 11//7
f 11//8 17//22 6//8
f 1//9 13//9 11//9
f 11//10 13//10 1//10
f 11//25 14//11 1//11
f 1//14 14//14 11//26
f 12//9 4//9 15//9
f 15//10 4//10 12//10
f 18//22 12//24 7//22
f 7//21 12//23 18//21
f 12//27 19//28 7//28
f 7//29 19//29 12//30
f 7//28 20//31 13//31
f 13//32 20//32 7//29
f 13//8 18//22 7//22
f 7//21 18//21 13//7
f 21//10 8//10 14//10
f 14//9 8//9 21//9
f 15//17 8//12 22//17
f 22//18 8//13 15//18
f 15//15 23//24 9//15
f 9//16 23//23 15//16
f 16//19 9//19 24//19
f 24//20 9//20 16//20
f 16//16 25//23 10//23
f 10//24 25//24 16//15
f 17//21 10//23 25//23
f 25//24 10//24 17//22
f 11//9 26//9 17//9
f 17//10 26//10 11//10
f 17//33 27//25 11//25
f 11//26 27//26 17//34
f 11//9 13//9 26//9
f 26//10 13//10 11//10
f 14//11 11//25 27//25
f 27//26 11//26 14//14
f 22//17 12//27 15//17
f 15//18 12//30 22//18
f 23//24 15//15 12//24
f 12//23 15//16 23//23
f 12//24 18//22 23//24
f 23//23 18//21 12//23
f 19//28 12//27 21//27
f 21//30 12//30 19//29
f 20//31 7//28 19//28
f 19//29 7//29 20//32
f 20//31 26//35 13//31
f 13//32 26//36 20//32
f 18//22 13//8 28//8
f 28//7 13//7 18//21
f 8//10 21//10 22//10
f 22//9 21//9 8//9
f 21//10 14//10 19//10
f 19//9 14//9 21//9
f 24//19 9//19 23//19
f 23//20 9//20 24//20
f 24//4 29//16 16//16
f 16//15 29//15 24//2
f 25//23 16//16 29//16
f 29//15 16//15 25//24
f 17//9 30//9 25//9
f 25//10 30//10 17//10
f 31//37 17//33 25//37
f 25//38 17//34 31//38
f 17//9 26//9 30//9
f 30//10 26//10 17//10
f 27//25 17//33 32//33
f 32//34 17//34 27//26
f 33//3 13//8 26//3
f 26//1 13//7 33//1
f 19//10 14//10 27//10
f 27//9 14//9 19//9
f 12//27 22//17 21//27
f 21//30 22//18 12//30
f 18//39 24//39 23//39
f 23//40 24//40 18//40
f 19//10 27//10 20//10
f 20//9 27//9 19//9
f 26//35 20//31 34//35
f 34//36 20//32 26//36
f 13//8 33//3 28//8
f 28//7 33//1 13//7
f 24//39 18//39 28//39
f 28//40 18//40 24//40
f 29//16 24//4 30//4
f 30//2 24//2 29//15
f 25//9 30//9 29//9
f 29//10 30//10 25//10
f 29//41 31//37 25//37
f 25//38 31//38 29//42
f 17//33 31//37 32//33
f 32//34 31//38 17//34
f 30//4 33//3 26//3
f 26//1 33//1 30//2
f 34//35 30//43 26//35
f 26//36 30//44 34//36
f 20//10 27//10 32//10
f 32//9 27//9 20//9
f 20//10 32//10 34//10
f 34//9 32//9 20//9
f 24//39 28//39 33//39
f 33//40 28//40 24//40
f 33//3 30//4 24//4
f 24//2 30//2 33//1
f 30//43 35//41 29//41
f 29//42 35//42 30//44
f 31//37 29//41 35//41
f 35//42 29//42 31//38
f 34//10 32//10 31//10
f 31//9 32//9 34//9
f 30//43 34//35 36//43
f 36//44 34//36 30//44
f 35//41 30//43 36//43
f 36//44 30//44 35//42
f 36//10 31//10 35//10
f 35//9 31//9 36//9
f 34//10 31//10 36//10
f 36//9 31//9 34//9
