# SSTK version 0.8.0
# 14
mtllib original-14.mtl
o mesh13/mesh13-geometry#mesh13-geometry
v 0.496044 -0.712425 0.236560
v 0.496044 -0.766956 0.236560
v 0.556317 -0.712425 0.256651
v 0.514700 -0.772697 0.243018
v 0.500110 -0.773414 0.238952
v 0.507525 -0.775567 0.240387
v 0.576407 -0.712425 0.196379
v 0.516135 -0.712425 0.176288
v 0.536226 -0.771262 0.182029
v 0.516853 -0.769109 0.176288
v 0.529290 -0.775088 0.180833
v 0.519005 -0.772697 0.177006
vt -23.70951 2.125
vt -23.70951 0.9375
vt -25.093006 2.125
vt -23.815819 0.814626
vt -24.245718 0.68962
vt -25.199265 2.002185
vt -23.173101 -1.482427
vt -23.272598 -1.625354
vt -23.602402 -1.609473
vt -22.997155 4.058482
vt -23.161218 4.01025
vt -23.326949 4.074559
vt -18.466442 20.29487
vt -19.341442 18.54487
vt -19.778942 19.85737
vt -18.028942 18.98237
vt 24.164087 1.014566
vt 23.70951 2.295968
vt 25.093006 2.295968
vt 23.341613 0.933396
vt 23.326633 2.167779
vt 23.781617 0.88652
vt 23.391949 -1.44291
vt 23.104559 -1.310604
vt 23.544482 -1.358234
vt 24.198166 1.068363
vt 24.148795 1.146513
vt 24.437123 1.016262
vn -0.31622806601688475 0 0.9486831980504455
vn 0.31622806601688475 0 -0.9486831980504455
vn -0.324344992860356 0.010001999779830986 0.9458859791786852
vn 0.324344992860356 -0.010001999779830986 -0.9458859791786852
vn -0.2722800902831919 0.17874405926832246 0.9454703135009895
vn 0.2722800902831919 -0.17874405926832246 -0.9454703135009895
vn -0.2501399829154397 -0.23550998391466862 0.9391299358574277
vn 0.2501399829154397 0.23550998391466862 -0.9391299358574277
vn 0 1 0
vn 0.3161901484867229 0.015424007243300591 -0.9485704454601687
vn -0.3161901484867229 -0.015424007243300591 0.9485704454601687
vn 0 -1 0
vn 0.28445398011581413 0.003600999748279323 -0.9586829329851893
vn -0.28445398011581413 -0.003600999748279323 0.9586829329851893
vn 0.2614239931312154 -0.17731299534118977 -0.948797975070808
vn 0.35377299887057967 0.025265999919338294 -0.9349899970150444
vn -0.35377299887057967 -0.025265999919338294 0.9349899970150444
vn -0.2614239931312154 0.17731299534118977 0.948797975070808
usemtl material_0_0
f 1/1/1 2/2/1 3/3/1
f 3/3/2 2/2/2 1/1/2
f 2/4/3 4/5/3 3/6/3
f 3/6/4 4/5/4 2/4/4
f 2/7/5 5/8/5 4/9/5
f 4/9/6 5/8/6 2/7/6
f 5/10/7 6/11/7 4/12/7
f 4/12/8 6/11/8 5/10/8
f 7/13/9 1/14/9 3/15/9
f 7/13/9 8/16/9 1/14/9
f 9/17/10 8/18/10 7/19/10
f 7/19/11 8/18/11 9/17/11
f 1/14/12 8/16/12 7/13/12
f 3/15/12 1/14/12 7/13/12
f 10/20/13 8/21/13 9/22/13
f 9/22/14 8/21/14 10/20/14
f 11/23/15 10/24/15 9/25/15
f 12/26/16 10/27/16 11/28/16
f 11/28/17 10/27/17 12/26/17
f 9/25/18 10/24/18 11/23/18
