# SSTK version 0.8.0
# 8
mtllib original-8.mtl
o mesh7/mesh7-geometry#mesh7-geometry
v -0.458263 -0.082438 -0.163818
v -0.502750 -0.086743 -0.162383
v -0.458263 -0.089613 -0.162383
v -0.502750 -0.093919 -0.165253
v -0.458263 -0.096789 -0.165253
v -0.507055 -0.093919 -0.173385
v -0.459698 -0.101094 -0.170993
v -0.514230 -0.093919 -0.181039
v -0.458263 -0.098224 -0.181039
v -0.507055 -0.088178 -0.186779
v -0.458263 -0.092483 -0.191084
v -0.502750 -0.082438 -0.192519
v -0.458263 -0.085308 -0.192519
v -0.501314 -0.075263 -0.189649
v -0.456828 -0.078133 -0.189649
v -0.507055 -0.072393 -0.185344
v -0.456828 -0.073828 -0.182474
v -0.512795 -0.073828 -0.175299
v -0.456828 -0.076698 -0.172429
v -0.507055 -0.079568 -0.166688
vt 2.373249 13.458842
vt 3.342322 13.363236
vt 2.373652 13.299498
vt 2.929214 18.609202
vt 2.930826 18.440923
vt 1.960786 18.54189
vt 1.962399 18.373612
vt -7.860959 8.902895
vt -7.66059 8.902895
vt -8.314224 8.044447
vt 0.773391 18.31604
vt -0.241469 18.069742
vt -0.30107 18.217521
vt -5.341404 12.632349
vt -5.112949 12.632349
vt -6.084717 11.898804
vt -5.916338 -4.085344
vt -4.736591 -4.405249
vt -4.821739 -4.61852
vt -4.164025 4.815397
vt -3.999408 4.98441
vt -2.948265 4.688637
vt -5.59283 0.158127
vt -4.538185 -0.026829
vt -4.589767 -0.273438
vt -4.90759 5.716148
vt -4.794686 5.88135
vt -3.844043 5.592246
vt -2.365588 13.360764
vt -3.333855 13.583846
vt -2.365185 13.520108
vt -2.949454 18.436868
vt -2.916623 18.604853
vt -1.981019 18.369674
vt -1.948187 18.537659
vt -1.08068 16.883098
vt -2.043505 17.006997
vt -2.157387 17.130897
vt -1.144939 16.996584
vt -2.222968 17.238569
vt -1.128659 17.178073
vt 3.486395 -7.274317
vt 4.563317 -7.070825
vt 4.71512 -7.274317
vt 3.486395 -5.030691
vt 4.71512 -5.030691
vt 3.514212 -5.256487
vt 2.486254 0.074802
vt 3.702871 0.188855
vt 3.582982 -0.039252
vt 2.506546 0.278354
vt 3.603459 0.166089
vt 2.543216 0.053825
vt 3.04041 8.355717
vt 2.944402 8.17468
vt 1.976702 8.283302
vn 0.012652003446988198 0.19610005342668244 0.9805022671339569
vn -0.012652003446988198 -0.19610005342668244 -0.9805022671339569
vn -0.023954007103897217 -0.3712841101095172 0.928210275273793
vn 0.023954007103897217 0.3712841101095172 -0.928210275273793
vn -0.06434500814073792 -0.9973461261812478 0.03406500430980242
vn 0.06434500814073792 0.9973461261812478 -0.03406500430980242
vn -0.14827598362551336 -0.7730079146348083 0.6168249318824846
vn -0.15539596882189985 -0.977050803967966 0.14568397077048095
vn 0.15539596882189985 0.977050803967966 -0.14568397077048095
vn -0.07354602561351108 -0.9560953329745991 -0.28367709879482206
vn 0.07354602561351108 0.9560953329745991 0.28367709879482206
vn -0.051774011155617965 -0.6730581450221716 -0.7377751589665862
vn 0.051774011155617965 0.6730581450221716 0.7377751589665862
vn -0.11952401376552169 -0.8620190992783142 -0.4925820567304324
vn 0.11952401376552169 0.8620190992783142 0.4925820567304324
vn -0.12355702096398327 -0.6538231109345035 -0.7464911266575334
vn 0.12355702096398327 0.6538231109345035 0.7464911266575334
vn 0.023690001509230816 0.36719802339326885 -0.9298410592378511
vn -0.023690001509230816 -0.36719802339326885 0.9298410592378511
vn 0.055706000220372934 0.8634460034157924 -0.5013560019833644
vn -0.055706000220372934 -0.8634460034157924 0.5013560019833644
vn 0.05382100470823478 0.8562500749043317 -0.513750044942599
vn -0.05382100470823478 -0.8562500749043317 0.513750044942599
vn 0.019527999594676843 0.9881379794902083 0.15232199683840467
vn -0.019527999594676843 -0.9881379794902083 -0.15232199683840467
vn 0.03519900277392792 0.960928075727862 0.2745510216365432
vn -0.03519900277392792 -0.960928075727862 -0.2745510216365432
vn 0.014805002152906555 0.8364861216397292 0.5477880796579788
vn -0.014805002152906555 -0.8364861216397292 -0.5477880796579788
vn 0.016130000809363134 0.8306990416824022 0.5564880279231788
vn -0.016130000809363134 -0.8306990416824022 -0.5564880279231788
vn -0.021044009956407476 0.5050672389589838 0.8628234082216959
vn 0.021044009956407476 -0.5050672389589838 -0.8628234082216959
vn 0.14827598362551336 0.7730079146348083 -0.6168249318824846
usemtl material_0_0
f 1/1/1 2/2/1 3/3/1
f 3/3/2 2/2/2 1/1/2
f 2/4/3 4/5/3 3/6/3
f 3/6/4 4/5/4 2/4/4
f 3/6/3 4/5/3 5/7/3
f 5/7/4 4/5/4 3/6/4
f 4/8/5 6/9/5 5/10/5
f 5/10/6 6/9/6 4/8/6
f 6/11/7 7/12/7 5/13/7
f 6/14/8 8/15/8 7/16/8
f 7/16/9 8/15/9 6/14/9
f 8/17/10 9/18/10 7/19/10
f 7/19/11 9/18/11 8/17/11
f 8/20/12 10/21/12 9/22/12
f 9/22/13 10/21/13 8/20/13
f 10/23/14 11/24/14 9/25/14
f 9/25/15 11/24/15 10/23/15
f 10/26/16 12/27/16 11/28/16
f 11/28/17 12/27/17 10/26/17
f 11/29/2 12/30/2 13/31/2
f 13/31/1 12/30/1 11/29/1
f 12/32/18 14/33/18 13/34/18
f 13/34/19 14/33/19 12/32/19
f 13/34/18 14/33/18 15/35/18
f 15/35/19 14/33/19 13/34/19
f 15/36/20 14/37/20 16/38/20
f 16/38/21 14/37/21 15/36/21
f 15/39/22 16/40/22 17/41/22
f 17/41/23 16/40/23 15/39/23
f 17/42/24 16/43/24 18/44/24
f 18/44/25 16/43/25 17/42/25
f 17/45/26 18/46/26 19/47/26
f 19/47/27 18/46/27 17/45/27
f 19/48/28 18/49/28 20/50/28
f 20/50/29 18/49/29 19/48/29
f 19/51/30 20/52/30 1/53/30
f 1/53/31 20/52/31 19/51/31
f 20/54/32 2/55/32 1/56/32
f 1/56/33 2/55/33 20/54/33
f 5/13/34 7/12/34 6/11/34
