# SSTK version 0.8.0
# 23
mtllib original-23.mtl
o mesh22/mesh22-geometry#mesh22-geometry
v -0.456828 -0.076698 0.097361
v -0.501314 -0.065218 0.095926
v -0.456828 -0.068088 0.095926
v -0.501314 -0.072393 0.097361
v -0.458263 -0.081003 0.103101
v -0.505620 -0.075263 0.105971
v -0.458263 -0.079568 0.113146
v -0.512795 -0.075263 0.114581
v -0.456828 -0.076698 0.124627
v -0.505620 -0.072393 0.121757
v -0.456828 -0.070958 0.127497
v -0.501314 -0.066653 0.127497
v -0.456828 -0.062347 0.126062
v -0.501314 -0.059477 0.126062
v -0.455393 -0.058042 0.120321
v -0.505620 -0.056607 0.117451
v -0.455393 -0.058042 0.108841
v -0.511360 -0.055172 0.107406
v -0.456828 -0.062347 0.098796
v -0.505620 -0.059477 0.098796
vt 2.38037 13.074327
vt 3.348728 13.327775
vt 2.380034 13.264413
vt 2.520339 12.469611
vt 3.488907 12.565216
vt 3.488303 12.72456
vt 4.257645 -2.873723
vt 5.172401 -2.568914
vt 4.211132 -2.721319
vt 8.649464 -6.901915
vt 8.497878 -6.744203
vt 7.657741 -7.217339
vt 8.550005 17.078283
vt 7.643268 17.602218
vt 8.414626 16.903638
vt 15.009834 -6.335298
vt 14.765764 -6.335298
vt 14.225608 -7.232467
vt 2.410571 20.44337
vt 1.177812 20.563724
vt 2.313398 20.202663
vt 1.622479 22.482492
vt 0.572823 22.68205
vt 0.385647 22.549012
vt -0.456173 22.02631
vt -1.525888 21.991408
vt -0.462573 21.886702
vt -0.671595 23.426347
vt -1.636426 23.554281
vt -1.741029 23.383702
vt -2.477956 13.282214
vt -3.447084 13.187171
vt -2.47846 13.092128
vt -2.423446 12.649987
vt -3.392116 12.713725
vt -3.392519 12.554381
vt -3.618444 -3.308033
vt -3.576815 -3.154223
vt -4.583777 -3.205493
vt -3.67777 -10.889966
vt -2.674485 -10.789857
vt -3.765883 -10.689747
vt -16.810192 2.640659
vt -16.560192 2.640659
vt -16.747692 3.734856
vt -9.490169 -12.037125
vt -8.409008 -12.289141
vt -9.520847 -11.785109
vt -0.189934 21.895094
vt -0.128062 21.66317
vt 1.020987 22.049711
vt 1.272227 22.184424
vt 0.11803 21.813539
vt 1.171977 21.961893
vt 1.725591 21.755321
vt 2.785794 21.964935
vt 1.723754 21.895064
vt 1.652352 21.902763
vt 2.620546 21.973356
vt 2.712125 22.114543
vn -0.010606004191599745 -0.16439006496861042 -0.9863383898108721
vn -0.018976001419850896 -0.19608101467146838 -0.980404073357267
vn -0.07629896992741549 -0.7884186892515366 -0.6103887594205062
vn -0.13389306273098991 -0.9181244301556272 -0.37298817475078205
vn -0.11073798689587645 -0.9838608835753211 0.1405519833678523
vn -0.08027602863378216 -0.9945253547388038 -0.06689602386124734
vn -0.06965696867014846 -0.9657025656526749 0.25013288749688106
vn -0.10482996159743756 -0.8827796766096148 0.4579418322412835
vn -0.09168598317122272 -0.4453299182605917 0.8906598365211834
vn -0.06585002669214911 -0.6804462758172527 0.7298332958361619
vn 0.015908002133987045 0.16437802205057345 0.9862691323035748
vn 0.012652003446988198 0.19610005342668244 0.9805022671339569
vn 0.051147007216152736 0.7927731118495914 0.6073670856913023
vn 0.009313998920060514 0.9500298898459408 0.31201996382191133
vn 0.028560002283886353 0.9995920799353827 0
vn 0.047954011184219415 0.9922822314280272 0.11435202667009757
vn 0.057166015308889456 0.9146592449430346 -0.4001631071624939
vn 0.05334903233256429 0.9069265496493504 -0.4178972532696324
vn 0.02629799563178495 0.44705892574150685 -0.8941178514830137
vn 0.029994999240961554 0.46491898823499267 -0.8848449776085557
usemtl material_0_0
f 1/1/1 2/2/1 3/3/1
f 1/4/2 4/5/2 2/6/2
f 5/7/3 4/8/3 1/9/3
f 6/10/4 4/11/4 5/12/4
f 7/13/5 6/14/5 5/15/5
f 8/16/6 6/17/6 7/18/6
f 9/19/7 8/20/7 7/21/7
f 9/22/8 10/23/8 8/24/8
f 11/25/9 10/26/9 9/27/9
f 11/28/10 12/29/10 10/30/10
f 13/31/11 12/32/11 11/33/11
f 13/34/12 14/35/12 12/36/12
f 13/37/13 15/38/13 14/39/13
f 14/40/14 15/41/14 16/42/14
f 15/43/15 17/44/15 16/45/15
f 16/46/16 17/47/16 18/48/16
f 17/49/17 19/50/17 18/51/17
f 18/52/18 19/53/18 20/54/18
f 3/55/19 20/56/19 19/57/19
f 3/58/20 2/59/20 20/60/20
