# SSTK version 0.8.0
# 20
mtllib original-20.mtl
o mesh19/mesh19-geometry#mesh19-geometry
v -0.251616 -0.233118 0.005518
v -0.380770 -0.119749 -0.092066
v -0.380770 -0.115444 -0.080585
v -0.387946 -0.105399 -0.080585
v -0.389381 -0.101094 -0.093501
v -0.435302 -0.101094 -0.093501
v -0.389381 -0.088178 -0.080585
v -0.435302 -0.088178 -0.080585
v -0.435302 -0.055172 0.159068
v -0.435302 -0.098224 -0.074845
v -0.435302 -0.066653 0.164808
v -0.389381 -0.066653 0.164808
v -0.389381 -0.098224 -0.074845
v -0.389381 -0.055172 0.159068
v -0.389381 -0.053737 0.177723
v -0.435302 -0.053737 0.177723
v -0.435302 -0.065218 0.173418
v -0.432432 -0.066653 0.192074
v -0.386511 -0.066653 0.192074
v -0.386511 -0.072393 0.180594
v -0.389381 -0.065218 0.173418
v -0.432432 -0.072393 0.180594
v -0.428127 -0.082438 0.180594
v -0.428127 -0.086743 0.193509
v -0.343459 -0.231683 0.071530
v -0.382205 -0.086743 0.193509
v -0.251616 -0.231683 0.071530
v -0.251616 -0.223073 0.065790
v -0.382205 -0.082438 0.180594
v -0.343459 -0.223073 0.065790
v -0.433867 -0.105399 -0.080585
v -0.426692 -0.115444 -0.080585
v -0.251616 -0.224508 0.009823
v -0.343459 -0.224508 0.009823
v -0.343459 -0.233118 0.005518
v -0.426692 -0.119749 -0.092066
vt 14.313288 11.138664
vt 11.426754 14.330596
vt 11.664655 14.451809
vt 11.869735 14.577594
vt 11.628248 14.463695
vt 11.829307 14.84336
vt 12.454146 13.983181
vt 12.197539 13.638618
vt 12.174535 14.08655
vt -1.73638 14.459864
vt -0.73638 14.459864
vt -0.54888 14.052414
vt -0.73638 19.510096
vt -1.73638 19.510096
vt -0.73638 19.907843
vt -1.73638 19.907843
vt -0.73638 14.463522
vt -1.73638 14.463522
vt -1.73638 19.731534
vt -12.435192 15.71875
vt -12.560192 15.5
vt -17.653942 16.4375
vt -17.778942 16.1875
vt 1.73638 19.740867
vt 1.73638 14.477028
vt 0.73638 19.740867
vt 0.73638 14.477028
vt 12.560192 15.5
vt 12.435192 15.71875
vt 17.778942 16.1875
vt 17.653942 16.4375
vt -0.73638 19.731534
vt -0.73638 18.862641
vt -1.73638 18.862641
vt -0.73638 19.270091
vt -1.73638 19.270091
vt -17.966442 16.21875
vt -18.060192 16.46875
vt -17.512093 16.436085
vt -17.923119 16.404787
vt -17.604813 16.68647
vt 0.73638 -2.407022
vt 1.73638 -2.407022
vt 1.67388 -2.827448
vt 0.67388 -2.827448
vt 18.27799 16.305102
vt 18.028625 16.17884
vt 17.961831 16.589193
vt 17.213089 16.56988
vt 17.045601 16.726985
vt 17.135619 16.978353
vt 17.966442 16.21875
vt 18.060192 16.46875
vt 1.73638 20.388335
vt 0.73638 20.198249
vt 0.73638 20.388335
vt 1.73638 20.198249
vt -1.73638 -1.235805
vt -0.73638 -1.235805
vt -0.67388 -1.456776
vt -1.67388 -1.456776
vt -17.742492 16.565249
vt -17.990299 16.694542
vt -17.579352 16.726866
vt -17.369686 16.914505
vt -17.389329 16.677324
vt -17.614136 17.050037
vt -18.189683 15.531381
vt -18.470183 15.43541
vt -18.445858 15.883272
vt -15.529093 10.39976
vt -18.432334 13.862156
vt -18.15428 13.965
vt 1.67388 14.837363
vt 1.58013 14.398748
vt 0.58013 14.398748
vt 0.58013 23.900788
vt 1.58013 23.900788
vt -0.26362 19.775551
vt -2.26362 19.775551
vt 12.358302 8.675226
vt 12.250991 8.873382
vt 16.097036 12.010846
vt 18.019371 10.655767
vt 14.644652 7.016123
vt 17.746094 10.770704
vt -1.58013 23.733903
vt -0.58013 23.733903
vt 2.26362 19.780562
vt -1.58013 15.84375
vt -0.67388 16.0625
vt -0.58013 15.84375
vt 18.301016 13.70682
vt 18.022593 13.808659
vt 18.035851 14.046282
vt 18.246555 15.924753
vt 17.957151 16.243802
vt 18.205824 16.371422
vt 0.67388 14.837363
vt -1.67388 16.0625
vt 0.26362 19.780562
vt -14.376188 10.908624
vt -14.492008 10.715318
vt -17.386111 14.065946
vt 12.534989 15.358495
vt 12.406788 15.201715
vt 12.411297 15.577988
vt 12.33368 15.434734
vt 12.050806 15.528806
vt 12.331085 15.811025
vt 0.73638 19.949756
vt 1.73638 19.949756
vt 0.70513 19.749659
vt 1.70513 19.749659
vt -12.085579 15.531825
vt -12.367752 15.43567
vt -12.491579 15.595927
vt -12.531246 12.323527
vt -12.55093 12.591628
vt -12.275857 12.706529
vt 1.70513 15.34375
vt 1.54888 15.125
vt 0.70513 15.34375
vt 0.54888 15.125
vt 0.54888 3.708417
vt 1.54888 3.708417
vt -2.26362 0.623518
vt -0.26362 0.623518
vt -12.540855 13.85689
vt -12.622154 14.050114
vt -10.012283 16.49763
vt -11.613928 15.116836
vt -14.063672 12.307163
vt -11.858683 15.223533
vt -1.54888 3.442938
vt -0.54888 3.442938
vt 0.26362 0.185584
vt 2.26362 0.185584
vt -1.54888 14.052414
vt -11.759402 15.181968
vt -12.005938 15.284482
vt -11.69748 15.626195
vt -12.153942 15.4375
vt 12.259827 14.589434
vt 12.189834 14.391832
vt 8.918869 17.092384
vn 0.7360012035069369 0.6338761752690053 -0.23770406572601524
vn -0.7360012035069369 -0.6338761752690053 0.23770406572601524
vn 0.7950661197858633 0.5679050855614385 -0.21296403208548292
vn -0.7950661197858633 -0.5679050855614385 0.21296403208548292
vn 0.9060754663706355 0.4212457519090725 0.039739976595306634
vn -0.9060754663706355 -0.4212457519090725 -0.039739976595306634
vn 0 -0.07669604006095984 -0.997054520795612
vn 0 0.07669604006095984 0.997054520795612
vn 0 0.7071067811865476 -0.7071067811865476
vn 0 -0.7071067811865476 0.7071067811865476
vn 0 0.9906487542349343 -0.13643696615203946
vn 0 -0.9906487542349343 0.13643696615203946
vn -1 0 0
vn 1 0 0
vn 0 -0.9914340862448549 0.13060801136159136
vn 0 0.9914340862448549 -0.13060801136159136
vn 0 0.997054520795612 -0.07669604006095984
vn 0 -0.997054520795612 0.07669604006095984
vn -0.9874865998003994 -0.05537297755894256 0.14766194015690998
vn 0.9874865998003994 0.05537297755894256 -0.14766194015690998
vn 0 0.74329394735212 0.6689649526168796
vn 0 -0.74329394735212 -0.6689649526168796
vn 0.9874838522516897 0.1410689788931199 -0.07053498944648513
vn -0.9874838522516897 -0.1410689788931199 0.07053498944648513
vn 0.9549703050934844 0.10417903328307077 -0.2778100887546424
vn -0.9549703050934844 -0.10417903328307077 0.2778100887546424
vn 0 -0.9863939238321437 0.1643989873053573
vn 0 0.9863939238321437 -0.1643989873053573
vn 0 -0.7071067811865476 -0.7071067811865476
vn 0 0.7071067811865476 0.7071067811865476
vn -0.958314806683486 -0.2555509484488623 0.12777497422453202
vn 0.958314806683486 0.2555509484488623 -0.12777497422453202
vn -0.9018192147204751 -0.3864940920230947 0.19324704601154735
vn 0.9018192147204751 0.3864940920230947 -0.19324704601154735
vn -0.9742592969084887 -0.21386206517511588 -0.07128702172493705
vn -0.9012200697499301 -0.4111230318188682 -0.13704101060628943
vn 0.9012200697499301 0.4111230318188682 0.13704101060628943
vn 0.9742592969084887 0.21386206517511588 0.07128702172493705
vn 0 0.07124697892194064 0.997458704906873
vn 0 -0.07124697892194064 -0.997458704906873
vn 0 -0.6439019880015304 0.765107985742978
vn 0 0.6439019880015304 -0.765107985742978
vn 0.8123215620235446 0.32350682557600413 0.4852597383642758
vn -0.8123215620235446 -0.32350682557600413 -0.4852597383642758
vn 0.7925471797421917 0.5785171312022043 0.1928390437340681
vn -0.7925471797421917 -0.5785171312022043 -0.1928390437340681
vn 0 0.6323762939611371 -0.7746613601025789
vn 0 -0.6323762939611371 0.7746613601025789
vn 0 0 -1
vn 0 0 1
vn 0.9113222073741258 0.3905670888747229 0.13018902962490764
vn -0.9113222073741258 -0.3905670888747229 -0.13018902962490764
vn 0.974274037060898 0.20157400766777467 -0.10078700383388733
vn -0.974274037060898 -0.20157400766777467 0.10078700383388733
vn -0.8987322449256905 -0.24323506628728062 -0.3648520994307847
vn 0.8987322449256905 0.24323506628728062 0.3648520994307847
vn 0.9861856979900451 0.08218197483255481 0.1438189559568178
vn -0.9861856979900451 -0.08218197483255481 -0.1438189559568178
vn 0.9931269978295211 0.08276099981912584 -0.08276099981912584
vn -0.9931269978295211 -0.08276099981912584 0.08276099981912584
vn 0 -0.6246949256032117 0.7808689070039849
vn 0 0.6246949256032117 -0.7808689070039849
vn -0.9743946703399277 -0.22222992481451784 0.03418898843308082
vn -0.8094236972626431 -0.5781597837590308 -0.10278396155716102
vn 0 0.6381893591851981 0.7698794333028947
vn 0 -0.6381893591851981 -0.7698794333028947
vn -0.8414911990859019 -0.24161605716322485 0.48323311432668636
vn 0.8414911990859019 0.24161605716322485 -0.48323311432668636
vn -0.860226218602435 -0.4774461213295787 0.1790420454985285
vn 0 -0.6523698229791464 -0.7579007943432684
vn 0 0.6523698229791464 0.7579007943432684
vn -0.9018383486805336 -0.40456315641749707 0.1517110586565131
vn 0.860226218602435 0.4774461213295787 -0.1790420454985285
vn 0.9018383486805336 0.40456315641749707 -0.1517110586565131
vn 0.8094236972626431 0.5781597837590308 0.10278396155716102
vn 0.9743946703399277 0.22222992481451784 -0.03418898843308082
vn 0.7084277684631733 0.31563589684010546 -0.6312717936802109
vn -0.7084277684631733 -0.31563589684010546 0.6312717936802109
usemtl material_0_0
f 1/1/1 2/2/1 3/3/1
f 3/3/2 2/2/2 1/1/2
f 3/4/3 2/5/3 4/6/3
f 4/6/4 2/5/4 3/4/4
f 4/7/5 2/8/5 5/9/5
f 5/9/6 2/8/6 4/7/6
f 6/10/7 5/11/7 2/12/7
f 2/12/8 5/11/8 6/10/8
f 5/13/9 6/14/9 7/15/9
f 7/15/10 6/14/10 5/13/10
f 6/14/9 8/16/9 7/15/9
f 7/15/10 8/16/10 6/14/10
f 7/17/11 8/18/11 9/19/11
f 9/19/12 8/18/12 7/17/12
f 8/20/13 10/21/13 9/22/13
f 9/22/14 10/21/14 8/20/14
f 10/21/13 11/23/13 9/22/13
f 11/24/15 10/25/15 12/26/15
f 12/26/16 10/25/16 11/24/16
f 10/25/15 13/27/15 12/26/15
f 12/26/16 13/27/16 10/25/16
f 13/28/14 7/29/14 12/30/14
f 12/30/13 7/29/13 13/28/13
f 12/30/14 7/29/14 14/31/14
f 14/31/13 7/29/13 12/30/13
f 14/32/11 7/17/11 9/19/11
f 9/19/12 7/17/12 14/32/12
f 14/33/17 9/34/17 15/35/17
f 15/35/18 9/34/18 14/33/18
f 15/35/17 9/34/17 16/36/17
f 16/36/18 9/34/18 15/35/18
f 9/22/13 17/37/13 16/38/13
f 11/23/13 17/37/13 9/22/13
f 9/22/14 17/37/14 11/23/14
f 16/38/14 17/37/14 9/22/14
f 17/39/19 18/40/19 16/41/19
f 16/41/20 18/40/20 17/39/20
f 15/42/21 16/43/21 18/44/21
f 18/44/22 16/43/22 15/42/22
f 19/45/21 15/42/21 18/44/21
f 19/46/23 20/47/23 15/48/23
f 15/48/24 20/47/24 19/46/24
f 20/49/25 21/50/25 15/51/25
f 15/51/26 21/50/26 20/49/26
f 21/52/14 12/30/14 15/53/14
f 15/53/13 12/30/13 21/52/13
f 12/30/14 14/31/14 15/53/14
f 15/53/13 14/31/13 12/30/13
f 17/54/27 12/55/27 21/56/27
f 21/56/28 12/55/28 17/54/28
f 11/57/27 12/55/27 17/54/27
f 17/54/28 12/55/28 11/57/28
f 17/58/29 21/59/29 20/60/29
f 20/60/30 21/59/30 17/58/30
f 22/61/29 17/58/29 20/60/29
f 22/62/31 18/63/31 17/64/31
f 17/64/32 18/63/32 22/62/32
f 22/65/33 23/66/33 18/67/33
f 18/67/34 23/66/34 22/65/34
f 23/68/35 24/69/35 18/70/35
f 25/71/36 24/72/36 23/73/36
f 23/73/37 24/72/37 25/71/37
f 18/70/38 24/69/38 23/68/38
f 18/74/39 24/75/39 26/76/39
f 26/76/40 24/75/40 18/74/40
f 26/77/41 24/78/41 25/79/41
f 25/79/42 24/78/42 26/77/42
f 26/77/41 25/79/41 27/80/41
f 27/80/42 25/79/42 26/77/42
f 27/81/43 28/82/43 26/83/43
f 26/83/44 28/82/44 27/81/44
f 26/84/45 28/85/45 29/86/45
f 29/86/46 28/85/46 26/84/46
f 23/87/47 29/88/47 28/89/47
f 28/89/48 29/88/48 23/87/48
f 23/90/49 20/91/49 29/92/49
f 29/92/50 20/91/50 23/90/50
f 26/93/51 29/94/51 20/95/51
f 20/95/52 29/94/52 26/93/52
f 26/96/53 20/97/53 19/98/53
f 19/98/54 20/97/54 26/96/54
f 19/99/39 18/74/39 26/76/39
f 18/44/22 15/42/22 19/45/22
f 26/76/40 18/74/40 19/99/40
f 23/90/49 22/100/49 20/91/49
f 20/91/50 22/100/50 23/90/50
f 20/60/30 17/58/30 22/61/30
f 30/101/47 23/87/47 28/89/47
f 28/89/48 23/87/48 30/101/48
f 30/102/55 25/103/55 23/104/55
f 23/104/56 25/103/56 30/102/56
f 9/22/14 11/23/14 10/21/14
f 13/105/57 4/106/57 7/107/57
f 7/107/58 4/106/58 13/105/58
f 4/108/59 5/109/59 7/110/59
f 7/110/60 5/109/60 4/108/60
f 13/111/61 10/112/61 4/113/61
f 4/113/62 10/112/62 13/111/62
f 10/112/61 31/114/61 4/113/61
f 6/115/63 31/116/63 10/117/63
f 32/118/64 31/119/64 6/120/64
f 31/121/50 32/122/50 4/123/50
f 4/123/49 32/122/49 31/121/49
f 4/123/50 32/122/50 3/124/50
f 3/124/49 32/122/49 4/123/49
f 3/125/65 32/126/65 33/127/65
f 33/127/66 32/126/66 3/125/66
f 32/126/65 34/128/65 33/127/65
f 33/127/66 34/128/66 32/126/66
f 35/129/67 34/130/67 32/131/67
f 32/131/68 34/130/68 35/129/68
f 36/132/69 35/133/69 32/134/69
f 36/135/70 2/136/70 35/137/70
f 35/137/71 2/136/71 36/135/71
f 35/137/70 2/136/70 1/138/70
f 1/138/71 2/136/71 35/137/71
f 36/139/7 6/10/7 2/12/7
f 2/12/8 6/10/8 36/139/8
f 36/140/72 32/141/72 6/142/72
f 32/134/73 35/133/73 36/132/73
f 6/142/74 32/141/74 36/140/74
f 6/120/75 31/119/75 32/118/75
f 10/117/76 31/116/76 6/115/76
f 4/113/62 31/114/62 10/112/62
f 6/143/13 10/21/13 8/20/13
f 8/20/14 10/21/14 6/143/14
f 33/144/77 1/145/77 3/146/77
f 3/146/78 1/145/78 33/144/78
