# SSTK version 0.8.0
# 17
mtllib original-17.mtl
o mesh16/mesh16-geometry#mesh16-geometry
v -0.540778 -0.769109 0.176288
v -0.600333 -0.712425 0.196379
v -0.540061 -0.712425 0.176288
v -0.580242 -0.712425 0.256651
v -0.519970 -0.712425 0.236560
v -0.538626 -0.772697 0.243018
v -0.519970 -0.766956 0.236560
v -0.522840 -0.772697 0.238713
v -0.531809 -0.775567 0.240866
v -0.560152 -0.771262 0.182029
v -0.543218 -0.772984 0.177149
v -0.553263 -0.774993 0.180881
vt -9.527533 0.953976
vt -10.896207 2.188361
vt -9.51271 2.188361
vt -18.028942 -4.01763
vt -18.466442 -5.33013
vt -19.778942 -4.89263
vt -19.341442 -3.58013
vt 10.896207 2.060171
vt 9.942582 0.747662
vt 9.51271 2.060171
vt 9.709963 2.125
vt 10.139863 0.8125
vt 9.709963 0.9375
vt 8.971986 -3.189837
vt 8.615681 -3.189837
vt 8.54305 -3.061567
vt 8.971986 2.551162
vt 8.816445 2.488358
vt 8.615681 2.551162
vt -9.49242 1.438388
vt -10.42034 2.720514
vt -9.052419 1.485295
vt -8.981795 0.210743
vt -9.365544 0.248269
vt -8.925544 0.295175
vt -9.57069 -3.332603
vt -9.721247 -3.248586
vt -9.337622 -3.287364
vn -0.3162249323895356 0.00400299914413886 -0.948675797168393
vn 0.3162249323895356 -0.00400299914413886 0.948675797168393
vn 0 1 0
vn 0 -1 0
vn 0.3162258247113305 0.00376499791300576 0.9486764741345459
vn -0.3162258247113305 -0.00376499791300576 -0.9486764741345459
vn 0.3271109760363414 0 0.9449859307717507
vn -0.3271109760363414 0 -0.9449859307717507
vn 0.2564099552789026 0.22435796086917054 0.9401688360228172
vn 0.2618458891103842 -0.09819195841649993 0.960101593404742
vn -0.2618458891103842 0.09819195841649993 -0.960101593404742
vn -0.2564099552789026 -0.22435796086917054 -0.9401688360228172
vn -0.2876679022099023 0.03696298743476723 -0.95701667467085
vn 0.2876679022099023 -0.03696298743476723 0.95701667467085
vn -0.2801380203528684 -0.036775002671814376 -0.9592550696927611
vn -0.2915670529459575 -0.2545750462285414 -0.9220521674363904
vn 0.2915670529459575 0.2545750462285414 0.9220521674363904
vn 0.2801380203528684 0.036775002671814376 0.9592550696927611
usemtl material_0_0
f 1/1/1 2/2/1 3/3/1
f 3/3/2 2/2/2 1/1/2
f 3/4/3 2/5/3 4/6/3
f 4/6/4 2/5/4 3/4/4
f 5/7/3 3/4/3 4/6/3
f 4/6/4 3/4/4 5/7/4
f 4/8/5 6/9/5 5/10/5
f 5/10/6 6/9/6 4/8/6
f 5/11/7 6/12/7 7/13/7
f 7/13/8 6/12/8 5/11/8
f 6/14/9 8/15/9 7/16/9
f 6/17/10 9/18/10 8/19/10
f 8/19/11 9/18/11 6/17/11
f 7/16/12 8/15/12 6/14/12
f 10/20/13 2/21/13 1/22/13
f 1/22/14 2/21/14 10/20/14
f 11/23/15 10/24/15 1/25/15
f 12/26/16 10/27/16 11/28/16
f 11/28/17 10/27/17 12/26/17
f 1/25/18 10/24/18 11/23/18
