# SSTK version 0.8.0
# 29
mtllib original-29.mtl
o mesh27/mesh27-geometry#mesh27-geometry
v -0.042099 -0.772697 0.547966
v -0.042099 -0.789917 0.555141
v -0.042099 -0.755476 0.547966
v -0.042099 -0.738255 0.555141
v -0.042099 -0.802833 0.568057
v -0.042099 -0.725340 0.568057
v -0.042099 -0.810008 0.585277
v 0.018173 -0.810008 0.585277
v 0.018173 -0.802833 0.568057
v 0.018173 -0.789917 0.555141
v 0.018173 -0.772697 0.547966
v 0.018173 -0.755476 0.547966
v 0.018173 -0.738255 0.555141
v 0.018173 -0.725340 0.568057
v -0.042099 -0.718165 0.585277
v -0.042099 -0.810008 0.603933
v 0.018173 -0.810008 0.603933
v 0.018173 -0.718165 0.603933
v 0.018173 -0.718165 0.585277
v -0.042099 -0.718165 0.603933
v -0.042099 -0.802833 0.619718
v 0.018173 -0.802833 0.619718
v 0.018173 -0.725340 0.619718
v -0.042099 -0.725340 0.619718
v -0.042099 -0.789917 0.632634
v -0.042099 -0.738255 0.632634
v -0.042099 -0.772697 0.639809
v -0.042099 -0.755476 0.639809
v 0.018173 -0.738255 0.632634
v 0.018173 -0.755476 0.639809
v 0.018173 -0.772697 0.639809
v 0.018173 -0.789917 0.632634
vt -26.122692 0.8125
vt -26.278942 0.4375
vt -26.122692 1.1875
vt -26.278942 1.5625
vt -26.560192 0.15625
vt -26.560192 1.84375
vt -26.935192 0
vt 6.82612 -24.863254
vt 6.82612 -24.457004
vt 8.13862 -24.863254
vt 8.13862 -24.457004
vt 6.82612 -18.670407
vt 6.82612 -18.272659
vt 8.13862 -18.670407
vt 8.13862 -18.272659
vt 6.82612 -9.703439
vt 6.82612 -9.297189
vt 8.13862 -9.703439
vt 8.13862 -9.297189
vt 6.82612 0.8125
vt 6.82612 1.1875
vt 8.13862 0.8125
vt 8.13862 1.1875
vt 6.82612 11.143343
vt 6.82612 11.549593
vt 8.13862 11.143343
vt 8.13862 11.549593
vt 8.13862 19.686873
vt 6.82612 19.686873
vt 6.82612 20.08462
vt 8.13862 20.08462
vt 26.278942 0.4375
vt 26.278942 1.5625
vt 26.560192 1.84375
vt 26.122692 0.8125
vt 26.122692 1.1875
vt 8.13862 25.226235
vt 6.82612 25.226235
vt 6.82612 25.632485
vt -26.935192 2
vt -27.341442 0
vt 27.341442 6.82612
vt 26.935192 6.82612
vt 27.341442 8.13862
vt 26.935192 8.13862
vt 27.341442 0
vt 26.935192 0
vt 27.341442 2
vt 26.935192 2
vt 26.560192 0.15625
vt 8.13862 25.632485
vt -26.935192 8.13862
vt -26.935192 6.82612
vt -27.341442 6.82612
vt -27.341442 2
vt -27.685192 0.15625
vt -6.82612 25.268328
vt -6.82612 24.890732
vt -8.13862 25.268328
vt -8.13862 24.890732
vt 27.685192 0.15625
vt 27.685192 1.84375
vt -8.13862 -24.440722
vt -8.13862 -24.063126
vt -6.82612 -24.440722
vt -6.82612 -24.063126
vt -27.341442 8.13862
vt -27.685192 1.84375
vt -27.966442 0.4375
vt -27.966442 1.5625
vt -28.122692 0.8125
vt -28.122692 1.1875
vt -6.82612 -9.314016
vt -6.82612 -9.720266
vt -8.13862 -9.314016
vt -8.13862 -9.720266
vt -6.82612 1.1875
vt -6.82612 0.8125
vt -8.13862 1.1875
vt -8.13862 0.8125
vt -6.82612 11.56642
vt -6.82612 11.16017
vt -8.13862 11.56642
vt -8.13862 11.16017
vt -6.82612 20.08462
vt -6.82612 19.686873
vt -8.13862 20.08462
vt -8.13862 19.686873
vt 27.966442 0.4375
vt 27.966442 1.5625
vt -8.13862 -18.670407
vt -8.13862 -18.272659
vt -6.82612 -18.670407
vt -6.82612 -18.272659
vt 28.122692 0.8125
vt 28.122692 1.1875
vn -1 0 0
vn 1 0 0
vn 0 -0.9230770710058602 -0.38461502958574306
vn 0 0.9230770710058602 0.38461502958574306
vn 0 -0.7071067811865476 -0.7071067811865476
vn 0 0.7071067811865476 0.7071067811865476
vn 0 -0.38461502958574306 -0.9230770710058602
vn 0 0.38461502958574306 0.9230770710058602
vn 0 0 -1
vn 0 0 1
vn 0 0.38461502958574306 -0.9230770710058602
vn 0 -0.38461502958574306 0.9230770710058602
vn 0 0.7071067811865476 -0.7071067811865476
vn 0 -0.7071067811865476 0.7071067811865476
vn 0 0.9230770710058602 -0.38461502958574306
vn 0 -0.9230770710058602 0.38461502958574306
vn 0 -1 0
vn 0 1 0
vn 0 -0.9103663747228083 0.4138031703286615
vn 0 0.9103663747228083 -0.4138031703286615
vn 0 0.9103663747228083 0.4138031703286615
vn 0 -0.9103663747228083 -0.4138031703286615
usemtl material_0_0
f 1/1/1 2/2/1 3/3/1
f 3/3/2 2/2/2 1/1/2
f 3/3/1 2/2/1 4/4/1
f 4/4/2 2/2/2 3/3/2
f 2/2/1 5/5/1 4/4/1
f 4/4/2 5/5/2 2/2/2
f 4/4/1 5/5/1 6/6/1
f 6/6/2 5/5/2 4/4/2
f 5/5/1 7/7/1 6/6/1
f 7/8/3 5/9/3 8/10/3
f 8/10/4 5/9/4 7/8/4
f 5/9/3 9/11/3 8/10/3
f 5/12/5 2/13/5 9/14/5
f 9/14/6 2/13/6 5/12/6
f 2/13/5 10/15/5 9/14/5
f 2/16/7 1/17/7 10/18/7
f 10/18/8 1/17/8 2/16/8
f 10/18/7 1/17/7 11/19/7
f 11/19/8 1/17/8 10/18/8
f 1/20/9 3/21/9 11/22/9
f 11/22/10 3/21/10 1/20/10
f 11/22/9 3/21/9 12/23/9
f 12/23/10 3/21/10 11/22/10
f 3/24/11 4/25/11 12/26/11
f 12/26/12 4/25/12 3/24/12
f 12/26/11 4/25/11 13/27/11
f 13/27/12 4/25/12 12/26/12
f 13/28/13 4/29/13 6/30/13
f 6/30/14 4/29/14 13/28/14
f 14/31/13 13/28/13 6/30/13
f 10/32/2 13/33/2 14/34/2
f 10/32/2 11/35/2 13/33/2
f 13/33/1 11/35/1 10/32/1
f 11/35/2 12/36/2 13/33/2
f 13/33/1 12/36/1 11/35/1
f 14/34/1 13/33/1 10/32/1
f 6/30/14 13/28/14 14/31/14
f 14/37/15 6/38/15 15/39/15
f 15/39/16 6/38/16 14/37/16
f 6/6/1 7/7/1 15/40/1
f 6/6/2 7/7/2 5/5/2
f 15/40/2 7/7/2 6/6/2
f 7/7/1 16/41/1 15/40/1
f 16/42/17 7/43/17 17/44/17
f 17/44/18 7/43/18 16/42/18
f 7/43/17 8/45/17 17/44/17
f 17/44/18 8/45/18 7/43/18
f 17/46/2 8/47/2 18/48/2
f 18/48/1 8/47/1 17/46/1
f 18/48/2 8/47/2 19/49/2
f 19/49/1 8/47/1 18/48/1
f 8/47/2 9/50/2 19/49/2
f 19/49/1 9/50/1 8/47/1
f 9/50/2 14/34/2 19/49/2
f 9/50/2 10/32/2 14/34/2
f 14/34/1 10/32/1 9/50/1
f 9/14/6 10/15/6 2/13/6
f 19/49/1 14/34/1 9/50/1
f 19/51/15 14/37/15 15/39/15
f 15/39/16 14/37/16 19/51/16
f 19/52/18 15/53/18 20/54/18
f 20/54/17 15/53/17 19/52/17
f 15/40/1 16/41/1 20/55/1
f 15/40/2 16/41/2 7/7/2
f 20/55/2 16/41/2 15/40/2
f 16/41/1 21/56/1 20/55/1
f 21/57/19 16/58/19 22/59/19
f 22/59/20 16/58/20 21/57/20
f 16/58/19 17/60/19 22/59/19
f 22/59/20 17/60/20 16/58/20
f 22/61/2 17/46/2 23/62/2
f 23/62/1 17/46/1 22/61/1
f 23/62/2 17/46/2 18/48/2
f 18/48/1 17/46/1 23/62/1
f 23/63/21 18/64/21 24/65/21
f 24/65/22 18/64/22 23/63/22
f 18/64/21 20/66/21 24/65/21
f 18/67/18 19/52/18 20/54/18
f 20/54/17 19/52/17 18/67/17
f 24/65/22 20/66/22 18/64/22
f 21/56/1 24/68/1 20/55/1
f 21/56/1 25/69/1 24/68/1
f 24/68/2 25/69/2 21/56/2
f 25/69/1 26/70/1 24/68/1
f 25/69/1 27/71/1 26/70/1
f 26/70/2 27/71/2 25/69/2
f 27/71/1 28/72/1 26/70/1
f 26/70/2 28/72/2 27/71/2
f 26/73/8 28/74/8 29/75/8
f 29/75/7 28/74/7 26/73/7
f 29/75/8 28/74/8 30/76/8
f 30/76/7 28/74/7 29/75/7
f 28/77/10 27/78/10 30/79/10
f 30/79/9 27/78/9 28/77/9
f 30/79/10 27/78/10 31/80/10
f 31/80/9 27/78/9 30/79/9
f 27/81/12 25/82/12 31/83/12
f 31/83/11 25/82/11 27/81/11
f 31/83/12 25/82/12 32/84/12
f 32/84/11 25/82/11 31/83/11
f 25/85/14 21/86/14 32/87/14
f 32/87/13 21/86/13 25/85/13
f 21/86/14 22/88/14 32/87/14
f 32/87/13 22/88/13 21/86/13
f 32/89/2 22/61/2 29/90/2
f 29/90/1 22/61/1 32/89/1
f 29/90/2 22/61/2 23/62/2
f 23/62/1 22/61/1 29/90/1
f 29/91/6 23/92/6 26/93/6
f 26/93/5 23/92/5 29/91/5
f 23/92/6 24/94/6 26/93/6
f 26/93/5 24/94/5 23/92/5
f 24/68/2 26/70/2 25/69/2
f 31/95/2 32/89/2 29/90/2
f 29/90/1 32/89/1 31/95/1
f 30/96/2 31/95/2 29/90/2
f 29/90/1 31/95/1 30/96/1
f 20/55/2 24/68/2 21/56/2
f 20/55/2 21/56/2 16/41/2
f 8/10/4 9/11/4 5/9/4
