# SSTK version 0.8.0
# 9
mtllib original-9.mtl
o mesh8/mesh8-geometry#mesh8-geometry
v -0.034924 -0.379493 0.072965
v -0.046404 -0.379493 0.061484
v -0.034924 -0.426850 0.072965
v -0.046404 -0.426850 0.061484
v -0.046404 -0.683724 0.061484
v -0.034924 -0.683724 0.072965
v -0.020573 -0.426850 0.080140
v -0.020573 -0.683724 0.080140
v -0.003353 -0.426850 0.080140
v -0.003353 -0.683724 0.080140
v 0.010998 -0.426850 0.072965
v 0.010998 -0.683724 0.072965
v 0.022478 -0.426850 0.061484
v 0.022478 -0.683724 0.061484
v 0.029654 -0.426850 0.047134
v 0.029654 -0.683724 0.047134
v 0.029654 -0.426850 0.029913
v 0.029654 -0.683724 0.029913
v 0.022478 -0.426850 0.015563
v 0.022478 -0.683724 0.015563
v 0.010998 -0.426850 0.004082
v 0.022478 -0.379493 0.015563
v 0.010998 -0.379493 0.004082
v 0.010998 -0.379493 0.022738
v 0.003823 -0.379493 0.015563
v -0.003353 -0.379493 -0.003093
v -0.003353 -0.426850 -0.003093
v -0.020573 -0.426850 -0.003093
v -0.020573 -0.379493 -0.003093
v -0.006223 -0.379493 0.011258
v -0.017703 -0.379493 0.011258
v -0.034924 -0.379493 0.004082
v -0.034924 -0.426850 0.004082
v -0.027748 -0.379493 0.015563
v -0.046404 -0.379493 0.015563
v -0.046404 -0.426850 0.015563
v -0.053579 -0.426850 0.029913
v -0.053579 -0.379493 0.029913
v -0.053579 -0.426850 0.047134
v -0.053579 -0.379493 0.047134
v -0.039229 -0.379493 0.044264
v -0.039229 -0.379493 0.032783
v -0.034924 -0.379493 0.022738
v -0.034924 -0.379493 0.054309
v -0.027748 -0.379493 0.061484
v -0.020573 -0.379493 0.080140
v -0.003353 -0.379493 0.080140
v -0.017703 -0.379493 0.065790
v -0.006223 -0.379493 0.065790
v 0.010998 -0.379493 0.072965
v 0.003823 -0.379493 0.061484
v 0.022478 -0.379493 0.061484
v 0.010998 -0.379493 0.054309
v 0.029654 -0.379493 0.047134
v 0.015303 -0.379493 0.044264
v 0.029654 -0.379493 0.029913
v 0.015303 -0.379493 0.032783
v -0.053579 -0.683724 0.047134
v -0.053579 -0.683724 0.029913
v -0.046404 -0.683724 0.015563
v -0.034924 -0.683724 0.004082
v -0.020573 -0.683724 -0.003093
v -0.003353 -0.683724 -0.003093
v 0.010998 -0.683724 0.004082
vt -16.094678 9.375
vt -15.741125 9.375
vt -16.094678 8.34375
vt -15.741125 8.34375
vt -15.741125 2.75
vt -16.094678 2.75
vt -13.301779 8.34375
vt -13.301779 2.75
vt -13.651165 8.34375
vt -13.651165 2.75
vt -7.29487 8.34375
vt -7.29487 2.75
vt -7.66987 8.34375
vt -7.66987 2.75
vt 0.266294 8.34375
vt 0.266294 2.75
vt -0.083092 8.34375
vt -0.083092 2.75
vt 5.513009 8.34375
vt 5.513009 2.75
vt 5.159455 8.34375
vt 5.159455 2.75
vt 10.20788 8.34375
vt 10.20788 2.75
vt 9.858494 8.34375
vt 9.858494 2.75
vt 15.216442 8.34375
vt 15.216442 2.75
vt 14.841442 8.34375
vt 14.841442 2.75
vt 17.026094 8.34375
vt 17.026094 2.75
vt 16.676709 8.34375
vt 16.676709 2.75
vt 16.094678 2.75
vt 15.741125 8.34375
vt 16.094678 8.34375
vt 16.094678 9.375
vt 15.741125 9.375
vt -14.528942 8.23237
vt -14.278942 7.98237
vt -14.685192 7.98237
vt -14.528942 7.82612
vt -14.122692 7.66987
vt 13.176001 8.34375
vt 13.176001 9.375
vt 13.525386 9.375
vt 7.66987 8.34375
vt 7.29487 8.34375
vt 7.66987 9.375
vt 7.29487 9.375
vt -14.122692 7.29487
vt -14.435192 7.60737
vt -14.435192 7.35737
vt -14.278942 6.98237
vt -0.140515 8.34375
vt -0.140515 9.375
vt 0.208871 9.375
vt -14.528942 7.13862
vt -14.528942 6.73237
vt -5.159455 9.375
vt -5.513009 8.34375
vt -5.513009 9.375
vt -9.984273 8.34375
vt -10.333659 8.34375
vt -9.984273 9.375
vt -10.333659 9.375
vt -14.841442 8.34375
vt -15.216442 8.34375
vt -14.841442 9.375
vt -15.216442 9.375
vt -16.55093 8.34375
vt -16.900316 8.34375
vt -16.55093 9.375
vt -16.900316 9.375
vt -15.153942 6.88862
vt -15.216442 6.57612
vt -15.528942 6.73237
vt -14.903942 6.88862
vt -14.841442 6.57612
vt -14.685192 6.98237
vt -15.372692 6.98237
vt -15.778942 6.98237
vt -15.528942 7.13862
vt -15.935192 7.29487
vt -13.651165 9.375
vt -13.301779 9.375
vt -7.29487 9.375
vt -7.66987 9.375
vt -15.935192 7.66987
vt -15.622692 7.35737
vt -15.622692 7.60737
vt -15.778942 7.98237
vt -15.528942 7.82612
vt -0.083092 9.375
vt 0.266294 9.375
vt 5.513009 9.375
vt 5.159455 9.375
vt -15.528942 8.23237
vt -15.372692 7.98237
vt -15.216442 8.38862
vt -15.153942 8.07612
vt -14.841442 8.38862
vt -14.903942 8.07612
vt 17.026094 9.375
vt 16.676709 9.375
vt 15.216442 9.375
vt 14.841442 9.375
vt 10.20788 9.375
vt 9.858494 9.375
vt -16.55093 2.75
vt -16.900316 2.75
vt -14.841442 2.75
vt -15.216442 2.75
vt -9.984273 2.75
vt -10.333659 2.75
vt -5.159455 2.75
vt -5.513009 2.75
vt -5.159455 8.34375
vt -0.140515 2.75
vt 0.208871 2.75
vt 0.208871 8.34375
vt 7.29487 2.75
vt 7.66987 2.75
vt 13.176001 2.75
vt 13.525386 2.75
vt 13.525386 8.34375
vt 15.741125 2.75
vn -0.7071067811865476 0 0.7071067811865476
vn 0.7071067811865476 0 -0.7071067811865476
vn -0.44721399549990914 0 0.8944269909998284
vn 0.44721399549990914 0 -0.8944269909998284
vn 0 0 1
vn 0 0 -1
vn 0.44721399549990914 0 0.8944269909998284
vn -0.44721399549990914 0 -0.8944269909998284
vn 0.7071067811865476 0 0.7071067811865476
vn -0.7071067811865476 0 -0.7071067811865476
vn 0.8944269909998284 0 0.44721399549990914
vn -0.8944269909998284 0 -0.44721399549990914
vn 1 0 0
vn -1 0 0
vn 0.8944269909998284 0 -0.44721399549990914
vn -0.8944269909998284 0 0.44721399549990914
vn 0 1 0
vn 0 -1 0
usemtl material_0_0
f 1/1/1 2/2/1 3/3/1
f 3/3/2 2/2/2 1/1/2
f 2/2/1 4/4/1 3/3/1
f 3/3/2 4/4/2 2/2/2
f 4/4/1 5/5/1 3/3/1
f 3/3/2 5/5/2 4/4/2
f 3/3/1 5/5/1 6/6/1
f 6/6/2 5/5/2 3/3/2
f 3/7/3 6/8/3 7/9/3
f 7/9/4 6/8/4 3/7/4
f 7/9/3 6/8/3 8/10/3
f 8/10/4 6/8/4 7/9/4
f 7/11/5 8/12/5 9/13/5
f 9/13/6 8/12/6 7/11/6
f 9/13/5 8/12/5 10/14/5
f 10/14/6 8/12/6 9/13/6
f 9/15/7 10/16/7 11/17/7
f 11/17/8 10/16/8 9/15/8
f 11/17/7 10/16/7 12/18/7
f 12/18/8 10/16/8 11/17/8
f 11/19/9 12/20/9 13/21/9
f 13/21/10 12/20/10 11/19/10
f 13/21/9 12/20/9 14/22/9
f 14/22/10 12/20/10 13/21/10
f 13/23/11 14/24/11 15/25/11
f 15/25/12 14/24/12 13/23/12
f 14/24/11 16/26/11 15/25/11
f 15/25/12 16/26/12 14/24/12
f 15/27/13 16/28/13 17/29/13
f 17/29/14 16/28/14 15/27/14
f 16/28/13 18/30/13 17/29/13
f 17/29/14 18/30/14 16/28/14
f 17/31/15 18/32/15 19/33/15
f 19/33/16 18/32/16 17/31/16
f 18/32/15 20/34/15 19/33/15
f 19/33/16 20/34/16 18/32/16
f 20/35/2 21/36/2 19/37/2
f 19/37/1 21/36/1 20/35/1
f 19/37/2 21/36/2 22/38/2
f 22/38/1 21/36/1 19/37/1
f 21/36/2 23/39/2 22/38/2
f 22/38/1 23/39/1 21/36/1
f 22/40/17 23/41/17 24/42/17
f 24/42/18 23/41/18 22/40/18
f 23/41/17 25/43/17 24/42/17
f 24/42/18 25/43/18 23/41/18
f 23/41/17 26/44/17 25/43/17
f 27/45/4 26/46/4 23/47/4
f 27/48/6 28/49/6 26/50/6
f 26/50/5 28/49/5 27/48/5
f 28/49/6 29/51/6 26/50/6
f 26/50/5 29/51/5 28/49/5
f 26/44/17 29/52/17 30/53/17
f 30/53/18 29/52/18 26/44/18
f 30/53/17 29/52/17 31/54/17
f 31/54/18 29/52/18 30/53/18
f 29/52/17 32/55/17 31/54/17
f 33/56/8 32/57/8 29/58/8
f 29/58/7 32/57/7 33/56/7
f 31/54/18 32/55/18 29/52/18
f 31/54/17 32/55/17 34/59/17
f 34/59/18 32/55/18 31/54/18
f 34/59/17 32/55/17 35/60/17
f 35/60/18 32/55/18 34/59/18
f 32/61/10 36/62/10 35/63/10
f 35/63/9 36/62/9 32/61/9
f 36/64/12 37/65/12 35/66/12
f 35/66/11 37/65/11 36/64/11
f 35/66/12 37/65/12 38/67/12
f 38/67/11 37/65/11 35/66/11
f 37/68/14 39/69/14 38/70/14
f 38/70/13 39/69/13 37/68/13
f 38/70/14 39/69/14 40/71/14
f 40/71/13 39/69/13 38/70/13
f 39/72/16 4/73/16 40/74/16
f 40/74/15 4/73/15 39/72/15
f 40/74/16 4/73/16 2/75/16
f 2/75/15 4/73/15 40/74/15
f 41/76/17 40/77/17 2/78/17
f 2/78/18 40/77/18 41/76/18
f 41/76/17 42/79/17 40/77/17
f 40/77/18 42/79/18 41/76/18
f 42/79/17 38/80/17 40/77/17
f 40/77/18 38/80/18 42/79/18
f 43/81/17 38/80/17 42/79/17
f 42/79/18 38/80/18 43/81/18
f 43/81/17 35/60/17 38/80/17
f 38/80/18 35/60/18 43/81/18
f 34/59/17 35/60/17 43/81/17
f 43/81/18 35/60/18 34/59/18
f 44/82/17 41/76/17 2/78/17
f 2/78/18 41/76/18 44/82/18
f 44/82/17 2/78/17 1/83/17
f 1/83/18 2/78/18 44/82/18
f 45/84/17 44/82/17 1/83/17
f 1/83/18 44/82/18 45/84/18
f 45/84/17 1/83/17 46/85/17
f 46/85/18 1/83/18 45/84/18
f 46/86/3 1/87/3 7/9/3
f 7/9/4 1/87/4 46/86/4
f 1/87/3 3/7/3 7/9/3
f 7/9/4 3/7/4 1/87/4
f 46/88/5 7/11/5 9/13/5
f 9/13/6 7/11/6 46/88/6
f 47/89/5 46/88/5 9/13/5
f 9/13/6 46/88/6 47/89/6
f 47/90/17 48/91/17 46/85/17
f 49/92/17 48/91/17 47/90/17
f 47/90/18 48/91/18 49/92/18
f 46/85/18 48/91/18 47/90/18
f 48/91/17 45/84/17 46/85/17
f 46/85/18 45/84/18 48/91/18
f 50/93/17 49/92/17 47/90/17
f 51/94/17 49/92/17 50/93/17
f 50/93/18 49/92/18 51/94/18
f 47/90/18 49/92/18 50/93/18
f 50/95/7 47/96/7 11/17/7
f 11/17/8 47/96/8 50/95/8
f 47/96/7 9/15/7 11/17/7
f 11/17/8 9/15/8 47/96/8
f 50/97/9 11/19/9 13/21/9
f 13/21/10 11/19/10 50/97/10
f 52/98/9 50/97/9 13/21/9
f 13/21/10 50/97/10 52/98/10
f 52/99/17 51/94/17 50/93/17
f 52/99/17 53/100/17 51/94/17
f 54/101/17 53/100/17 52/99/17
f 54/101/17 55/102/17 53/100/17
f 56/103/17 55/102/17 54/101/17
f 56/103/17 57/104/17 55/102/17
f 56/103/17 22/40/17 57/104/17
f 56/105/15 19/33/15 22/106/15
f 22/106/16 19/33/16 56/105/16
f 17/31/15 19/33/15 56/105/15
f 56/105/16 19/33/16 17/31/16
f 54/107/13 17/29/13 56/108/13
f 56/108/14 17/29/14 54/107/14
f 15/27/13 17/29/13 54/107/13
f 54/107/14 17/29/14 15/27/14
f 52/109/11 15/25/11 54/110/11
f 54/110/12 15/25/12 52/109/12
f 13/23/11 15/25/11 52/109/11
f 52/109/12 15/25/12 13/23/12
f 52/99/18 53/100/18 54/101/18
f 51/94/18 53/100/18 52/99/18
f 50/93/18 51/94/18 52/99/18
f 53/100/18 55/102/18 54/101/18
f 54/101/18 55/102/18 56/103/18
f 55/102/18 57/104/18 56/103/18
f 57/104/18 22/40/18 56/103/18
f 22/40/17 24/42/17 57/104/17
f 57/104/18 24/42/18 22/40/18
f 39/72/16 58/111/16 4/73/16
f 4/73/15 58/111/15 39/72/15
f 58/111/16 5/112/16 4/73/16
f 4/73/15 5/112/15 58/111/15
f 59/113/14 58/114/14 39/69/14
f 39/69/13 58/114/13 59/113/13
f 37/68/14 59/113/14 39/69/14
f 39/69/13 59/113/13 37/68/13
f 60/115/12 59/116/12 37/65/12
f 37/65/11 59/116/11 60/115/11
f 36/64/12 60/115/12 37/65/12
f 37/65/11 60/115/11 36/64/11
f 61/117/10 60/118/10 36/62/10
f 36/62/9 60/118/9 61/117/9
f 61/117/10 36/62/10 33/119/10
f 33/119/9 36/62/9 61/117/9
f 33/119/10 36/62/10 32/61/10
f 32/61/9 36/62/9 33/119/9
f 61/120/8 33/56/8 62/121/8
f 62/121/7 33/56/7 61/120/7
f 62/121/8 33/56/8 28/122/8
f 28/122/7 33/56/7 62/121/7
f 28/122/8 33/56/8 29/58/8
f 29/58/7 33/56/7 28/122/7
f 62/123/6 28/49/6 63/124/6
f 63/124/5 28/49/5 62/123/5
f 63/124/6 28/49/6 27/48/6
f 27/48/5 28/49/5 63/124/5
f 63/125/4 27/45/4 64/126/4
f 64/126/3 27/45/3 63/125/3
f 64/126/4 27/45/4 21/127/4
f 21/127/3 27/45/3 64/126/3
f 21/127/4 27/45/4 23/47/4
f 23/47/3 27/45/3 21/127/3
f 23/47/3 26/46/3 27/45/3
f 25/43/18 26/44/18 23/41/18
f 26/44/17 30/53/17 25/43/17
f 25/43/18 30/53/18 26/44/18
f 64/128/2 21/36/2 20/35/2
f 20/35/1 21/36/1 64/128/1
