# SSTK version 0.8.0
# 30
mtllib original-30.mtl
o mesh28/mesh28-geometry#mesh28-geometry
v -0.298973 -0.802833 -0.407777
v -0.309018 -0.810008 -0.420692
v -0.298973 -0.725340 -0.407777
v -0.309018 -0.718165 -0.420692
v -0.320498 -0.810008 -0.436478
v -0.320498 -0.718165 -0.436478
v -0.329109 -0.802833 -0.449393
v -0.377900 -0.802833 -0.414952
v -0.367855 -0.810008 -0.400601
v -0.357810 -0.810008 -0.386251
v -0.347764 -0.802833 -0.371900
v -0.291797 -0.789917 -0.397731
v -0.291797 -0.738255 -0.397731
v -0.339154 -0.738255 -0.361855
v -0.347764 -0.725340 -0.371900
v -0.339154 -0.789917 -0.361855
v -0.336284 -0.772697 -0.356115
v -0.336284 -0.755476 -0.356115
v -0.287492 -0.755476 -0.391991
v -0.287492 -0.772697 -0.391991
v -0.357810 -0.718165 -0.386251
v -0.367855 -0.718165 -0.400601
v -0.329109 -0.725340 -0.449393
v -0.377900 -0.725340 -0.414952
v -0.337719 -0.738255 -0.459438
v -0.385076 -0.738255 -0.424997
v -0.342024 -0.755476 -0.465178
v -0.389381 -0.755476 -0.430737
v -0.389381 -0.772697 -0.430737
v -0.385076 -0.789917 -0.424997
v -0.342024 -0.772697 -0.465178
v -0.337719 -0.789917 -0.459438
vt 4.948214 0.15625
vt 4.591909 0
vt 4.948214 1.84375
vt 4.591909 2
vt 4.66327 0
vt 4.238224 0
vt 4.66327 2
vt 4.238224 2
vt 4.321896 0
vt 3.983875 0.15625
vt 4.321896 2
vt -2.069008 -3.501617
vt -2.078018 -3.873895
vt -3.369548 -3.501617
vt -3.499937 -3.470193
vt -2.220513 -3.88216
vt -3.514279 -3.88216
vt 4.685192 0.76362
vt 5.028942 1.01362
vt 5.466442 -0.26763
vt 5.778942 -0.04888
vt 2.072011 4.297174
vt 2.055492 4.685883
vt 3.372552 4.297174
vt 3.46277 4.281416
vt 2.152847 4.693536
vt 3.471656 4.693536
vt 2.152847 3.573233
vt 2.156549 3.962275
vt 3.471656 3.573233
vt 5.306204 0.4375
vt 5.037382 0.15625
vt 5.306204 1.5625
vt 5.037382 1.84375
vt 2.231836 -2.493993
vt 2.224288 -2.105006
vt 3.525601 -2.493993
vt 2.152847 -2.289114
vt 3.471656 -2.289114
vt 3.450182 -2.691169
vt -5.023629 0.4375
vt -5.023629 1.5625
vt -4.735518 1.84375
vt -5.803828 0.4375
vt -5.943583 0.8125
vt -5.803828 1.5625
vt -5.943583 1.1875
vt 3.525601 -0.337258
vt 3.551265 -0.73663
vt 2.231836 -0.337258
vt 2.156549 -0.587222
vt 3.473877 -0.993469
vt 2.155068 -0.993469
vt 3.473877 1.1875
vt 3.473877 0.8125
vt 2.155068 1.1875
vt 2.155068 0.8125
vt 3.473877 2.635872
vt 3.450182 2.236379
vt 2.155068 2.635872
vt 3.525601 2.421367
vt 2.231836 2.421367
vt 2.232591 2.827617
vt 3.542962 3.653934
vt 2.231836 4.056187
vt 3.525601 4.056187
vt 5.412576 0.8125
vt 5.256326 0.4375
vt 5.412576 1.1875
vt 5.256326 1.5625
vt -4.735518 0.15625
vt -5.087718 0.15625
vt -5.087718 1.84375
vt -4.706263 2
vt 2.072011 -3.584705
vt 3.372552 -3.584705
vt 3.374054 -3.996918
vt -5.028942 1.01362
vt -4.685192 0.76362
vt -5.778942 -0.04888
vt -5.466442 -0.26763
vt -2.220513 4.647664
vt -2.200133 4.275836
vt -3.514279 4.647664
vt -2.069008 4.335712
vt -3.369548 4.335712
vt -3.37105 4.747925
vt -2.069008 4.097059
vt -2.09604 3.69534
vt -3.369548 4.097059
vt -2.14732 3.626122
vt -3.422458 3.626122
vt -3.424756 4.015175
vt -2.149618 2.425687
vt -3.422458 2.83193
vt -2.14732 2.83193
vt -3.424756 2.425687
vt -3.406326 1.1875
vt -3.406326 0.8125
vt -3.562576 1.5625
vt -3.562576 0.4375
vt -3.64241 0.4375
vt -3.911233 0.15625
vt -3.64241 1.5625
vt -3.911233 1.84375
vt -3.943353 0.15625
vt -4.324808 0
vt -3.943353 1.84375
vt -4.324808 2
vt -4.706263 0
vt -2.149618 0.8125
vt -3.424756 1.1875
vt -2.149618 1.1875
vt -3.424756 0.8125
vt 3.425076 0.8125
vt 3.425076 1.1875
vt 3.581326 1.5625
vt 3.581326 0.4375
vt -3.424756 -0.579503
vt -2.149618 -0.579503
vt -2.14732 -0.985747
vt 3.430546 0.4375
vt 3.430546 1.5625
vt 3.718656 1.84375
vt 3.718656 0.15625
vt -2.14732 -2.275447
vt -2.124345 -2.677419
vt -3.422458 -2.275447
vt -3.37105 -2.213504
vt -2.069008 -2.602561
vt -3.369548 -2.602561
vt 3.983875 1.84375
vt -3.422458 -0.985747
vt 2.152847 -3.845605
vt 2.162473 -3.456665
vt 3.471656 -3.845605
vn 0.7893519481454989 0 -0.6139409596686848
vn -0.7893519481454989 0 0.6139409596686848
vn 0.8087359113301995 0 -0.5881719355128324
vn -0.8087359113301995 0 0.5881719355128324
vn 0.8320502943378436 0 -0.554700196225229
vn -0.24204194153755954 -0.9076567807659691 -0.3428919171784106
vn 0.24204194153755954 0.9076567807659691 0.3428919171784106
vn -0.22902991372570747 -0.9252826514511799 -0.3023198861177831
vn 0.22902991372570747 0.9252826514511799 0.3023198861177831
vn 0 -1 0
vn 0 1 0
vn 0.2318109801536197 -0.915651921606922 0.3283979718843731
vn -0.2318109801536197 0.915651921606922 -0.3283979718843731
vn 0.2245969210548699 -0.925340674745586 0.305451892634595
vn -0.2245969210548699 0.925340674745586 -0.305451892634595
vn 0.42825712283893536 -0.6909211981800648 0.5824291670608029
vn 0.8137334036391285 0 -0.5812382883137341
vn -0.8137334036391285 0 0.5812382883137341
vn 0.4366091369149709 0.6908132166300781 0.5763241807277991
vn -0.4366091369149709 -0.6908132166300781 -0.5763241807277991
vn 0.4143959533174697 0.7146019194986691 0.5635779365118219
vn -0.4143959533174697 -0.7146019194986691 -0.5635779365118219
vn -0.7592569553063406 0 0.6507909616911912
vn -0.8944269909998284 0 0.44721399549990914
vn 0.8944269909998284 0 -0.44721399549990914
vn 0.5670069941104985 0.3439849964270279 0.74844999222585
vn -0.5670069941104985 -0.3439849964270279 -0.74844999222585
vn 0.5468257244092005 0.3846008061677808 0.743682625196694
vn -0.5468257244092005 -0.3846008061677808 -0.743682625196694
vn 0.5923901641214215 0 0.8056512232052996
vn -0.5923901641214215 0 -0.8056512232052996
vn 0.5560709137331113 -0.3447639465145322 0.7562558826771184
vn -0.5560709137331113 0.3447639465145322 -0.7562558826771184
vn 0.557407775406796 -0.38461184503049584 0.7357787035367934
vn 0.4222090733575662 -0.7149401242187124 0.5573150968318344
vn -0.4222090733575662 0.7149401242187124 -0.5573150968318344
vn -0.557407775406796 0.38461184503049584 -0.7357787035367934
vn 0.8000000000000002 0 -0.6000000000000001
vn -0.8000000000000002 0 0.6000000000000001
vn -0.42825712283893536 0.6909211981800648 -0.5824291670608029
vn 0.7592569553063406 0 -0.6507909616911912
vn -0.8192321084384844 0 0.5734620759068861
vn 0.8192321084384844 0 -0.5734620759068861
vn 0.21859288983423894 0.9253755336321322 0.30967284393204847
vn -0.21859288983423894 -0.9253755336321322 -0.30967284393204847
vn -0.2537530693749568 0.9074222480851931 -0.3349540915749538
vn 0.2537530693749568 -0.9074222480851931 0.3349540915749538
vn -0.21859288983423894 0.9253755336321322 -0.30967284393204847
vn -0.4037448314953129 0.7140297019965529 -0.5719717612850613
vn 0.4037448314953129 -0.7140297019965529 0.5719717612850613
vn -0.4251951971124604 0.690942320307806 -0.584643271029575
vn -0.5429359288916861 0.3845799496315672 -0.7465379022259374
vn 0.21859288983423894 -0.9253755336321322 0.30967284393204847
vn 0.4251951971124604 -0.690942320307806 0.584643271029575
vn 0.5429359288916861 -0.3845799496315672 0.7465379022259374
vn -0.5881719355128324 0 -0.8087359113301995
vn 0.5881719355128324 0 0.8087359113301995
vn -0.5429359288916861 -0.3845799496315672 -0.7465379022259374
vn 0.5429359288916861 0.3845799496315672 0.7465379022259374
vn -0.4115289473302652 -0.7144609085593692 -0.5658529275790348
vn 0.4115289473302652 0.7144609085593692 0.5658529275790348
vn -0.41688599473889876 -0.6909499912802112 -0.5905879925467796
vn 0.41688599473889876 0.6909499912802112 0.5905879925467796
vn -0.8320502943378436 0 0.554700196225229
vn 0.23798300027677421 0.9157570010650254 0.32365600037641196
vn -0.23798300027677421 -0.9157570010650254 -0.32365600037641196
usemtl material_0_0
f 1/1/1 2/2/1 3/3/1
f 3/3/2 2/2/2 1/1/2
f 3/3/1 2/2/1 4/4/1
f 4/4/2 2/2/2 3/3/2
f 2/5/3 5/6/3 4/7/3
f 4/7/4 5/6/4 2/5/4
f 4/7/3 5/6/3 6/8/3
f 6/8/4 5/6/4 4/7/4
f 5/9/5 7/10/5 6/11/5
f 7/12/6 5/13/6 8/14/6
f 8/14/7 5/13/7 7/12/7
f 8/15/8 5/16/8 9/17/8
f 9/17/9 5/16/9 8/15/9
f 5/18/10 2/19/10 9/20/10
f 9/20/11 2/19/11 5/18/11
f 9/20/10 2/19/10 10/21/10
f 10/21/11 2/19/11 9/20/11
f 2/22/12 1/23/12 10/24/12
f 10/24/13 1/23/13 2/22/13
f 10/25/14 1/26/14 11/27/14
f 11/27/15 1/26/15 10/25/15
f 1/28/16 12/29/16 11/30/16
f 12/31/17 1/32/17 13/33/17
f 13/33/18 1/32/18 12/31/18
f 13/33/17 1/32/17 3/34/17
f 3/34/18 1/32/18 13/33/18
f 13/35/19 3/36/19 14/37/19
f 14/37/20 3/36/20 13/35/20
f 3/38/21 15/39/21 14/40/21
f 14/40/22 15/39/22 3/38/22
f 16/41/23 14/42/23 15/43/23
f 16/44/24 17/45/24 14/46/24
f 14/46/25 17/45/25 16/44/25
f 17/45/24 18/47/24 14/46/24
f 14/46/25 18/47/25 17/45/25
f 14/48/26 18/49/26 13/50/26
f 13/50/27 18/49/27 14/48/27
f 13/51/28 18/52/28 19/53/28
f 19/53/29 18/52/29 13/51/29
f 18/54/30 17/55/30 19/56/30
f 19/56/31 17/55/31 18/54/31
f 19/56/30 17/55/30 20/57/30
f 20/57/31 17/55/31 19/56/31
f 17/58/32 16/59/32 20/60/32
f 20/60/33 16/59/33 17/58/33
f 16/61/34 12/62/34 20/63/34
f 11/64/35 12/65/35 16/66/35
f 16/66/36 12/65/36 11/64/36
f 20/63/37 12/62/37 16/61/37
f 20/67/38 12/68/38 19/69/38
f 19/69/39 12/68/39 20/67/39
f 19/69/38 12/68/38 13/70/38
f 13/70/39 12/68/39 19/69/39
f 11/30/40 12/29/40 1/28/40
f 11/71/23 16/41/23 15/43/23
f 15/43/41 16/41/41 11/71/41
f 15/43/41 14/42/41 16/41/41
f 11/72/42 15/73/42 21/74/42
f 21/74/43 15/73/43 11/72/43
f 4/75/44 21/76/44 15/77/44
f 15/77/45 21/76/45 4/75/45
f 4/78/11 6/79/11 21/80/11
f 21/80/10 6/79/10 4/78/10
f 6/79/11 22/81/11 21/80/11
f 6/82/46 23/83/46 22/84/46
f 22/84/47 23/83/47 6/82/47
f 23/85/48 24/86/48 22/87/48
f 23/88/49 25/89/49 24/90/49
f 24/90/50 25/89/50 23/88/50
f 25/91/51 26/92/51 24/93/51
f 27/94/52 26/95/52 25/96/52
f 28/97/52 26/95/52 27/94/52
f 28/98/39 29/99/39 26/100/39
f 26/100/38 29/99/38 28/98/38
f 29/99/39 30/101/39 26/100/39
f 26/100/38 30/101/38 29/99/38
f 30/102/18 8/103/18 26/104/18
f 26/104/17 8/103/17 30/102/17
f 26/104/18 8/103/18 24/105/18
f 24/105/17 8/103/17 26/104/17
f 8/106/42 9/107/42 24/108/42
f 24/108/43 9/107/43 8/106/43
f 24/108/42 9/107/42 22/109/42
f 22/109/43 9/107/43 24/108/43
f 9/107/42 10/110/42 22/109/42
f 22/109/43 10/110/43 9/107/43
f 22/109/42 10/110/42 21/74/42
f 21/74/43 10/110/43 22/109/43
f 10/110/42 11/72/42 21/74/42
f 21/74/43 11/72/43 10/110/43
f 21/80/10 22/81/10 6/79/10
f 22/87/53 24/86/53 23/85/53
f 24/93/54 26/92/54 25/91/54
f 25/96/55 26/95/55 27/94/55
f 27/94/55 26/95/55 28/97/55
f 31/111/56 28/112/56 27/113/56
f 29/114/56 28/112/56 31/111/56
f 31/111/57 28/112/57 29/114/57
f 27/113/57 28/112/57 31/111/57
f 31/115/38 27/116/38 25/117/38
f 25/117/39 27/116/39 31/115/39
f 32/118/38 31/115/38 25/117/38
f 29/119/58 31/120/58 32/121/58
f 32/121/59 31/120/59 29/119/59
f 25/117/39 31/115/39 32/118/39
f 32/122/41 25/123/41 23/124/41
f 23/124/23 25/123/23 32/122/23
f 7/125/41 32/122/41 23/124/41
f 32/126/60 7/127/60 30/128/60
f 30/128/61 7/127/61 32/126/61
f 30/129/62 7/130/62 8/131/62
f 8/131/63 7/130/63 30/129/63
f 23/124/23 32/122/23 7/125/23
f 7/10/5 23/132/5 6/11/5
f 6/11/64 23/132/64 7/10/64
f 6/11/64 7/10/64 5/9/64
f 30/133/58 29/119/58 32/121/58
f 32/121/59 29/119/59 30/133/59
f 3/134/65 4/135/65 15/136/65
f 15/136/66 4/135/66 3/134/66
