# SSTK version 0.8.0
# 25
mtllib original-25.mtl
o mesh24/mesh24-geometry#mesh24-geometry
v -0.442477 0.168695 -0.291538
v -0.492704 0.183046 -0.291538
v -0.441042 0.180176 -0.291538
v -0.478354 0.191656 -0.288667
v -0.441042 0.190221 -0.290103
v -0.472614 0.195961 -0.284362
v -0.441042 0.194526 -0.284362
v -0.474049 0.195961 -0.275752
v -0.441042 0.193091 -0.275752
v -0.479789 0.190221 -0.271447
v -0.441042 0.188786 -0.270012
v -0.494139 0.181611 -0.270012
v -0.442477 0.178741 -0.270012
v -0.482659 0.170130 -0.272882
v -0.442477 0.167260 -0.271447
v -0.442477 0.162955 -0.278622
v -0.479789 0.165825 -0.278622
v -0.442477 0.164390 -0.285797
v -0.476919 0.167260 -0.285797
v -0.479789 0.171565 -0.288667
vt -1.89263 21.3125
vt -2.98638 21.625
vt -1.86138 21.5625
vt -2.853064 22.986397
vt -2.53955 23.182427
vt -1.728226 22.921054
vt -2.118738 22.445104
vt -2.932856 22.69764
vt -2.119767 22.666073
vt -1.86138 20.968504
vt -2.67388 21.012698
vt -2.54888 21.14528
vt -1.37415 19.612639
vt -1.381712 19.456572
vt -2.06039 19.664661
vt 8.194884 1.527653
vt 8.307908 2.206519
vt 8.497994 2.206519
vt 5.436463 -2.250096
vt 5.349731 -2.08095
vt 6.073695 -1.911803
vt 3.065728 13.494108
vt 3.196118 13.342328
vt 2.348268 13.418218
vt 1.962282 6.577796
vt 2.807125 6.473635
vt 1.963825 6.421554
vt 2.463422 19.538334
vt 2.774882 19.346548
vt 1.61912 19.506369
vt 3.01763 21.59375
vt 1.89263 21.53125
vt 1.86138 21.75
vt 2.895108 23.012364
vt 2.646054 22.753755
vt 1.77023 22.947712
vt 1.520125 22.404487
vt 2.397042 22.215531
vt 1.521519 22.152546
vt 1.473658 18.405841
vt 0.628069 18.104768
vt 0.604172 18.285412
vt 1.816417 19.170818
vt 1.008624 19.063429
vt 1.86512 19.331903
vt -5.440697 -2.01103
vt -4.626264 -2.160176
vt -4.682354 -2.309322
vt -5.16808 -1.301361
vt -4.461773 -1.561241
vt -5.279491 -1.431301
vt -3.105875 12.904563
vt -3.164597 13.019251
vt -2.357169 12.828104
vt -4.058924 7.14724
vt -3.248162 7.044119
vt -3.270245 6.889438
vt -3.517689 17.463394
vt -3.79085 17.729647
vt -2.70311 17.396831
vn 0 0 -1
vn 0 0 1
vn 0.01620899639018397 0.2917679350219752 -0.9563517870161772
vn -0.01620899639018397 -0.2917679350219752 0.9563517870161772
vn -0.03261799186884122 0.14134596476464623 -0.9894227533522744
vn 0.03261799186884122 -0.14134596476464623 0.9894227533522744
vn 0 0.7071067811865476 -0.7071067811865476
vn 0 -0.7071067811865476 0.7071067811865476
vn 0.03633998126311049 0.7994715877925556 -0.5996036908444168
vn -0.03633998126311049 -0.7994715877925556 0.5996036908444168
vn 0.045405997660229 0.9989399485246258 0.007567999610020989
vn -0.045405997660229 -0.9989399485246258 -0.007567999610020989
vn 0.08546001911616923 0.9827852198348278 0.1637980366392498
vn -0.08546001911616923 -0.9827852198348278 -0.1637980366392498
vn 0.04932500975488484 0.5672341121804834 0.822078162580359
vn -0.04932500975488484 -0.5672341121804834 -0.822078162580359
vn 0.007406998280135937 0.7999778142495728 0.5999838606870636
vn -0.007406998280135937 -0.7999778142495728 -0.5999838606870636
vn -0.028408008026044623 0.21022005939295624 0.9772412760975737
vn 0.028408008026044623 -0.21022005939295624 -0.9772412760975737
vn -0.01421499279599984 -0.2558668703295175 0.9666075101340708
vn 0.01421499279599984 0.2558668703295175 -0.9666075101340708
vn -0.04425498844436021 -0.12391296764446968 0.9913057411552353
vn 0.04425498844436021 0.12391296764446968 -0.9913057411552353
vn -0.07937294792334657 -0.8547874391732903 0.512872663503843
vn -0.0625529971777965 -0.8131949633110838 0.5786199738944033
vn -0.0752159902901428 -0.9778028737725017 -0.19556097475444875
vn -0.08088801026189853 -0.9706501231420211 -0.22648502873313825
vn -0.048002015336550345 -0.5760181840366871 -0.8160262607187999
vn 0.048002015336550345 0.5760181840366871 0.8160262607187999
vn -0.10707297463810934 -0.7954008115970114 -0.5965508586976994
vn -0.09829500941730127 -0.34403103296041065 -0.9337990894640268
vn 0.09829500941730127 0.34403103296041065 0.9337990894640268
vn 0.10707297463810934 0.7954008115970114 0.5965508586976994
vn 0.08088801026189853 0.9706501231420211 0.22648502873313825
vn 0.0752159902901428 0.9778028737725017 0.19556097475444875
vn 0.0625529971777965 0.8131949633110838 -0.5786199738944033
vn 0.07937294792334657 0.8547874391732903 -0.512872663503843
usemtl material_0_0
f 1/1/1 2/2/1 3/3/1
f 3/3/2 2/2/2 1/1/2
f 2/4/3 4/5/3 3/6/3
f 3/6/4 4/5/4 2/4/4
f 3/7/5 4/8/5 5/9/5
f 5/9/6 4/8/6 3/7/6
f 5/10/7 4/11/7 6/12/7
f 6/12/8 4/11/8 5/10/8
f 7/13/9 5/14/9 6/15/9
f 6/15/10 5/14/10 7/13/10
f 7/16/11 6/17/11 8/18/11
f 8/18/12 6/17/12 7/16/12
f 9/19/13 7/20/13 8/21/13
f 8/21/14 7/20/14 9/19/14
f 8/22/15 10/23/15 9/24/15
f 9/24/16 10/23/16 8/22/16
f 9/25/17 10/26/17 11/27/17
f 11/27/18 10/26/18 9/25/18
f 10/28/19 12/29/19 11/30/19
f 11/30/20 12/29/20 10/28/20
f 12/31/2 13/32/2 11/33/2
f 12/34/21 14/35/21 13/36/21
f 13/36/22 14/35/22 12/34/22
f 13/37/23 14/38/23 15/39/23
f 15/39/24 14/38/24 13/37/24
f 14/40/25 16/41/25 15/42/25
f 17/43/26 16/44/26 14/45/26
f 17/46/27 18/47/27 16/48/27
f 19/49/28 18/50/28 17/51/28
f 19/52/29 20/53/29 18/54/29
f 18/54/30 20/53/30 19/52/30
f 20/55/31 1/56/31 18/57/31
f 20/58/32 2/59/32 1/60/32
f 1/60/33 2/59/33 20/58/33
f 18/57/34 1/56/34 20/55/34
f 17/51/35 18/50/35 19/49/35
f 16/48/36 18/47/36 17/46/36
f 14/45/37 16/44/37 17/43/37
f 15/42/38 16/41/38 14/40/38
f 11/33/1 13/32/1 12/31/1
