# SSTK version 0.8.0
# 27
mtllib original-27.mtl
o mesh25/mesh25-geometry#mesh25-geometry
v 0.323839 -0.802833 -0.371900
v 0.333884 -0.810008 -0.386251
v 0.323839 -0.725340 -0.371900
v 0.333884 -0.718165 -0.386251
v 0.343929 -0.810008 -0.400601
v 0.343929 -0.718165 -0.400601
v 0.353975 -0.802833 -0.414952
v 0.305183 -0.802833 -0.449393
v 0.313793 -0.789917 -0.459438
v 0.313793 -0.738255 -0.459438
v 0.305183 -0.725340 -0.449393
v 0.296573 -0.810008 -0.436478
v 0.296573 -0.718165 -0.436478
v 0.285092 -0.810008 -0.420692
v 0.285092 -0.718165 -0.420692
v 0.275047 -0.802833 -0.407777
v 0.275047 -0.725340 -0.407777
v 0.267872 -0.789917 -0.397731
v 0.267872 -0.738255 -0.397731
v 0.263567 -0.772697 -0.391991
v 0.263567 -0.755476 -0.391991
v 0.315228 -0.738255 -0.361855
v 0.312358 -0.755476 -0.356115
v 0.315228 -0.789917 -0.361855
v 0.312358 -0.772697 -0.356115
v 0.353975 -0.725340 -0.414952
v 0.361150 -0.789917 -0.424997
v 0.361150 -0.738255 -0.424997
v 0.365455 -0.755476 -0.430737
v 0.365455 -0.772697 -0.430737
v 0.318098 -0.755476 -0.465178
v 0.318098 -0.772697 -0.465178
vt -3.493997 0.15625
vt -3.875452 0
vt -3.493997 1.84375
vt -3.875452 2
vt -4.256907 0
vt -4.256907 2
vt -4.638362 0.15625
vt 14.29472 4.408304
vt 15.595261 4.408304
vt 15.596762 3.99609
vt 14.29472 3.465188
vt 14.321752 3.866908
vt 15.595261 3.465188
vt 6.308379 0.4375
vt 6.020268 0.15625
vt 6.308379 1.5625
vt 6.020268 1.84375
vt 4.317069 0.15625
vt 3.979049 0
vt 4.317069 1.84375
vt 3.979049 2
vt 4.563613 0
vt 4.138567 0
vt 4.563613 2
vt 4.138567 2
vt 4.595553 0
vt 4.239248 0.15625
vt 4.595553 2
vt 4.239248 1.84375
vt 3.660697 0.15625
vt 3.391874 0.4375
vt 3.660697 1.84375
vt 3.391874 1.5625
vt 3.722519 0.4375
vt 3.566269 0.8125
vt 3.722519 1.5625
vt 3.566269 1.1875
vt -14.160113 2.90036
vt -14.160868 2.494111
vt -15.453878 2.90036
vt -14.211427 2.297828
vt -15.530236 2.297828
vt -15.50654 2.697321
vt -0.748853 1.1875
vt -0.888607 0.4375
vt -0.888607 1.5625
vt -0.748853 0.8125
vt -4.715296 0.4375
vt -5.003406 0.15625
vt -4.715296 1.5625
vt -5.003406 1.84375
vt -15.471239 4.205046
vt -14.160113 3.802793
vt -15.453878 3.802793
vt -14.209205 3.997622
vt -14.212908 3.60858
vt -15.528014 3.997622
vt -15.519129 4.679973
vt -14.209205 4.267853
vt -15.528014 4.267853
vt -14.297723 4.408767
vt -14.281204 4.020059
vt -15.598264 4.408767
vt -5.466442 15.23237
vt -5.028942 13.95112
vt -5.778942 15.01362
vt -4.685192 14.20112
vt 15.428214 -4.132633
vt 14.148791 -3.720667
vt 15.442556 -3.720667
vt 14.29472 -3.491954
vt 14.303731 -3.119677
vt 15.595261 -3.491954
vt -4.638362 1.84375
vt -4.786846 0.15625
vt -5.055669 0.4375
vt -4.786846 1.84375
vt 14.249846 3.901258
vt 15.524984 3.901258
vt 15.527281 3.512206
vt -5.055669 1.5625
vt 15.596762 -2.303528
vt 14.29472 -1.914471
vt 15.595261 -1.914471
vt 14.249846 -2.613769
vt 14.226871 -2.211797
vt 15.524984 -2.613769
vt 14.249846 -0.55308
vt 15.524984 -0.55308
vt 15.527281 -0.959323
vt -5.572519 0.8125
vt -5.572519 1.1875
vt -5.416269 1.5625
vt 15.527281 0.8125
vt 14.252144 1.1875
vt 15.527281 1.1875
vt 14.252144 0.8125
vt 5.553769 1.1875
vt 5.553769 0.8125
vt 5.397519 1.5625
vt 5.397519 0.4375
vt 14.249846 2.399263
vt 14.252144 2.805507
vt 15.524984 2.399263
vt 15.527281 2.805507
vt 14.252144 -0.959323
vt -5.416269 0.4375
vt 14.148791 4.392763
vt 14.128411 4.764591
vt 15.442556 4.392763
vt 4.685192 14.20112
vt 5.466442 15.23237
vt 5.778942 15.01362
vt 5.028942 13.95112
vt -14.297723 -3.643104
vt -15.598264 -3.643104
vt -15.599766 -3.230891
vt -14.209205 -3.469087
vt -14.218832 -3.858028
vt -15.528014 -3.469087
vt -14.209205 -2.64675
vt -15.528014 -2.64675
vt -15.50654 -2.244695
vt -14.160113 -2.302523
vt -14.152565 -2.691509
vt -15.453878 -2.302523
vt -15.479542 -0.493861
vt -14.160113 -0.893233
vt -15.453878 -0.893233
vt -14.211427 -0.569838
vt -14.212908 -0.976085
vt -15.530236 -0.569838
vt -15.530236 1.1875
vt -14.211427 0.8125
vt -15.530236 0.8125
vt -14.211427 1.1875
vn 0.8192321084384844 0 0.5734620759068861
vn -0.8192321084384844 0 -0.5734620759068861
vn 0.21859288983423894 -0.9253755336321322 -0.30967284393204847
vn 0.4037448314953129 -0.7140297019965529 -0.5719717612850613
vn -0.7592569553063406 0 -0.6507909616911912
vn 0.7592569553063406 0 0.6507909616911912
vn -0.8320502943378436 0 -0.554700196225229
vn 0.8320502943378436 0 0.554700196225229
vn -0.8087359113301995 0 -0.5881719355128324
vn 0.8087359113301995 0 0.5881719355128324
vn -0.7893519481454989 0 -0.6139409596686848
vn 0.7893519481454989 0 0.6139409596686848
vn -0.8137334036391285 0 -0.5812382883137341
vn 0.8137334036391285 0 0.5812382883137341
vn -0.8000000000000002 0 -0.6000000000000001
vn 0.8000000000000002 0 0.6000000000000001
vn -0.557407775406796 0.38461184503049584 0.7357787035367934
vn 0.557407775406796 -0.38461184503049584 -0.7357787035367934
vn -0.5560709137331113 0.3447639465145322 0.7562558826771184
vn 0.5560709137331113 -0.3447639465145322 -0.7562558826771184
vn 0.8944269909998284 0 0.44721399549990914
vn -0.8944269909998284 0 -0.44721399549990914
vn -0.4222090733575662 0.7149401242187124 0.5573150968318344
vn -0.42825712283893536 0.6909211981800648 0.5824291670608029
vn 0.42825712283893536 -0.6909211981800648 -0.5824291670608029
vn 0.4222090733575662 -0.7149401242187124 -0.5573150968318344
vn -0.2245969210548699 0.925340674745586 0.305451892634595
vn -0.2318109801536197 0.915651921606922 0.3283979718843731
vn 0.2318109801536197 -0.915651921606922 -0.3283979718843731
vn 0.2245969210548699 -0.925340674745586 -0.305451892634595
vn 0 1 0
vn 0 -1 0
vn 0.22902991372570747 0.9252826514511799 -0.3023198861177831
vn 0.24204194153755954 0.9076567807659691 -0.3428919171784106
vn -0.24204194153755954 -0.9076567807659691 0.3428919171784106
vn -0.22902991372570747 -0.9252826514511799 0.3023198861177831
vn 0.4251951971124604 -0.690942320307806 -0.584643271029575
vn -0.4251951971124604 0.690942320307806 0.584643271029575
vn 0.41688599473889876 0.6909499912802112 -0.5905879925467796
vn 0.4115289473302652 0.7144609085593692 -0.5658529275790348
vn -0.4115289473302652 -0.7144609085593692 0.5658529275790348
vn -0.41688599473889876 -0.6909499912802112 0.5905879925467796
vn 0.5429359288916861 0.3845799496315672 -0.7465379022259374
vn -0.5429359288916861 -0.3845799496315672 0.7465379022259374
vn 0.5881719355128324 0 -0.8087359113301995
vn 0.5429359288916861 -0.3845799496315672 -0.7465379022259374
vn -0.5429359288916861 0.3845799496315672 0.7465379022259374
vn -0.5881719355128324 0 0.8087359113301995
vn -0.4037448314953129 0.7140297019965529 0.5719717612850613
vn -0.21859288983423894 0.9253755336321322 0.30967284393204847
vn 0.2537530693749568 -0.9074222480851931 -0.3349540915749538
vn -0.2537530693749568 0.9074222480851931 0.3349540915749538
vn -0.21859288983423894 -0.9253755336321322 0.30967284393204847
vn 0.21859288983423894 0.9253755336321322 -0.30967284393204847
vn -0.23798300027677421 -0.9157570010650254 0.32365600037641196
vn 0.23798300027677421 0.9157570010650254 -0.32365600037641196
vn -0.4143959533174697 -0.7146019194986691 0.5635779365118219
vn 0.4143959533174697 0.7146019194986691 -0.5635779365118219
vn -0.4366091369149709 -0.6908132166300781 0.5763241807277991
vn 0.4366091369149709 0.6908132166300781 -0.5763241807277991
vn -0.5670069941104985 -0.3439849964270279 0.74844999222585
vn -0.5468257244092005 -0.3846008061677808 0.743682625196694
vn 0.5468257244092005 0.3846008061677808 -0.743682625196694
vn 0.5670069941104985 0.3439849964270279 -0.74844999222585
vn -0.5923901641214215 0 0.8056512232052996
vn 0.5923901641214215 0 -0.8056512232052996
usemtl material_0_0
f 1/1/1 2/2/1 3/3/1
f 3/3/2 2/2/2 1/1/2
f 3/3/1 2/2/1 4/4/1
f 4/4/2 2/2/2 3/3/2
f 2/2/1 5/5/1 4/4/1
f 4/4/2 5/5/2 2/2/2
f 4/4/1 5/5/1 6/6/1
f 6/6/2 5/5/2 4/4/2
f 5/5/1 7/7/1 6/6/1
f 8/8/3 7/9/3 5/10/3
f 8/11/4 9/12/4 7/13/4
f 9/14/5 8/15/5 10/16/5
f 10/16/6 8/15/6 9/14/6
f 10/16/5 8/15/5 11/17/5
f 11/17/6 8/15/6 10/16/6
f 8/18/7 12/19/7 11/20/7
f 11/20/8 12/19/8 8/18/8
f 11/20/7 12/19/7 13/21/7
f 13/21/8 12/19/8 11/20/8
f 12/22/9 14/23/9 13/24/9
f 13/24/10 14/23/10 12/22/10
f 13/24/9 14/23/9 15/25/9
f 15/25/10 14/23/10 13/24/10
f 14/26/11 16/27/11 15/28/11
f 15/28/12 16/27/12 14/26/12
f 16/27/11 17/29/11 15/28/11
f 16/30/13 18/31/13 17/32/13
f 17/32/14 18/31/14 16/30/14
f 18/31/13 19/33/13 17/32/13
f 18/34/15 20/35/15 19/36/15
f 19/36/16 20/35/16 18/34/16
f 20/35/15 21/37/15 19/36/15
f 19/36/16 21/37/16 20/35/16
f 19/38/17 21/39/17 22/40/17
f 22/40/18 21/39/18 19/38/18
f 21/41/19 23/42/19 22/43/19
f 22/43/20 23/42/20 21/41/20
f 23/44/21 24/45/21 22/46/21
f 25/47/21 24/45/21 23/44/21
f 23/44/22 24/45/22 25/47/22
f 22/46/22 24/45/22 23/44/22
f 24/48/6 1/49/6 22/50/6
f 22/50/5 1/49/5 24/48/5
f 22/50/6 1/49/6 3/51/6
f 3/51/5 1/49/5 22/50/5
f 3/52/23 19/53/23 22/54/23
f 17/55/24 19/56/24 3/57/24
f 3/57/25 19/56/25 17/55/25
f 22/54/26 19/53/26 3/52/26
f 17/32/14 19/33/14 18/31/14
f 4/58/27 17/59/27 3/60/27
f 15/61/28 17/62/28 4/63/28
f 15/28/12 17/29/12 16/27/12
f 4/63/29 17/62/29 15/61/29
f 3/60/30 17/59/30 4/58/30
f 6/64/31 15/65/31 4/66/31
f 13/67/31 15/65/31 6/64/31
f 6/64/32 15/65/32 13/67/32
f 4/66/32 15/65/32 6/64/32
f 26/68/33 13/69/33 6/70/33
f 11/71/34 13/72/34 26/73/34
f 26/73/35 13/72/35 11/71/35
f 6/70/36 13/69/36 26/68/36
f 7/7/1 26/74/1 6/6/1
f 6/6/2 26/74/2 7/7/2
f 7/75/14 27/76/14 26/77/14
f 9/78/37 27/79/37 7/80/37
f 7/80/38 27/79/38 9/78/38
f 26/77/13 27/76/13 7/75/13
f 27/76/14 28/81/14 26/77/14
f 26/77/13 28/81/13 27/76/13
f 28/82/39 11/83/39 26/84/39
f 10/85/40 11/86/40 28/87/40
f 28/87/41 11/86/41 10/85/41
f 26/84/42 11/83/42 28/82/42
f 10/88/43 28/89/43 29/90/43
f 29/90/44 28/89/44 10/88/44
f 30/91/16 29/92/16 28/93/16
f 28/93/15 29/92/15 30/91/15
f 30/94/45 31/95/45 29/96/45
f 32/97/45 31/95/45 30/94/45
f 31/98/15 32/99/15 10/100/15
f 10/100/16 32/99/16 31/98/16
f 32/99/15 9/101/15 10/100/15
f 10/100/16 9/101/16 32/99/16
f 9/102/46 32/103/46 27/104/46
f 27/104/47 32/103/47 9/102/47
f 27/104/46 32/103/46 30/105/46
f 30/105/47 32/103/47 27/104/47
f 30/94/48 31/95/48 32/97/48
f 29/96/48 31/95/48 30/94/48
f 31/106/43 10/88/43 29/90/43
f 29/90/44 10/88/44 31/106/44
f 27/107/16 30/91/16 28/93/16
f 28/93/15 30/91/15 27/107/15
f 7/13/49 9/12/49 8/11/49
f 5/10/50 7/9/50 8/8/50
f 6/6/2 7/7/2 5/5/2
f 12/108/51 8/109/51 5/110/51
f 5/110/52 8/109/52 12/108/52
f 12/111/32 5/112/32 2/113/32
f 2/113/31 5/112/31 12/111/31
f 14/114/32 12/111/32 2/113/32
f 2/113/31 12/111/31 14/114/31
f 14/115/53 2/116/53 1/117/53
f 1/117/54 2/116/54 14/115/54
f 16/118/55 14/119/55 1/120/55
f 1/120/56 14/119/56 16/118/56
f 16/121/57 1/122/57 24/123/57
f 24/123/58 1/122/58 16/121/58
f 18/124/59 16/125/59 24/126/59
f 24/126/60 16/125/60 18/124/60
f 25/127/61 18/128/61 24/129/61
f 20/130/62 18/131/62 25/132/62
f 25/132/63 18/131/63 20/130/63
f 24/129/64 18/128/64 25/127/64
f 23/133/65 20/134/65 25/135/65
f 21/136/65 20/134/65 23/133/65
f 23/133/66 20/134/66 21/136/66
f 25/135/66 20/134/66 23/133/66
