# SSTK version 0.8.0
# 22
mtllib original-22.mtl
o mesh21/mesh21-geometry#mesh21-geometry
v 0.485999 -0.075263 0.105971
v 0.438643 -0.076698 0.097361
v 0.481694 -0.072393 0.097361
v 0.438643 -0.081003 0.103101
v 0.493174 -0.075263 0.114581
v 0.438643 -0.079568 0.113146
v 0.485999 -0.072393 0.121757
v 0.438643 -0.076698 0.124627
v 0.481694 -0.066653 0.127497
v 0.437207 -0.070958 0.127497
v 0.481694 -0.059477 0.126062
v 0.437207 -0.062347 0.126062
v 0.485999 -0.056607 0.117451
v 0.437207 -0.058042 0.120321
v 0.491739 -0.055172 0.107406
v 0.437207 -0.058042 0.108841
v 0.485999 -0.059477 0.098796
v 0.437207 -0.062347 0.098796
v 0.481694 -0.065218 0.095926
v 0.437207 -0.068088 0.095926
vt -21.897049 -4.647528
vt -20.851865 -4.732374
vt -21.759006 -4.477835
vt -21.468573 0.129562
vt -20.448322 -0.07561
vt -20.421206 0.078269
vt -24.650045 6.092216
vt -23.697771 5.329684
vt -24.405975 6.092216
vt 8.584318 25.62434
vt 7.548032 25.036094
vt 7.649914 24.840012
vt 15.760194 24.27391
vt 14.765825 23.907471
vt 15.936971 24.127334
vt 9.319511 25.720986
vt 9.417148 25.482505
vt 10.29327 26.078707
vt 15.779316 24.784434
vt 15.668941 24.951336
vt 14.749509 24.659258
vt 17.411386 22.355091
vt 16.443715 22.250788
vt 16.47788 22.111717
vt 18.556673 12.775617
vt 17.588709 12.520668
vt 18.557278 12.616274
vt 18.413405 13.369816
vt 17.444711 13.306454
vt 17.445047 13.116368
vt 21.376071 -7.365407
vt 21.428453 -7.153021
vt 20.428825 -7.577792
vt 16.928304 -4.045392
vt 17.994275 -3.837085
vt 16.930754 -3.889161
vt 19.792309 -11.478101
vt 20.830077 -11.239721
vt 20.917414 -11.00134
vt 16.810192 18.10041
vt 16.528942 19.289554
vt 16.560192 18.10041
vt -14.773016 23.945451
vt -15.95318 24.094619
vt -15.855685 23.870867
vt -14.851413 23.713806
vt -15.93379 23.635097
vt -14.881159 23.477679
vt -17.814876 22.312599
vt -17.723092 22.171545
vt -16.752878 22.242072
vt -17.698037 22.04413
vt -16.729791 21.97426
vt -16.727776 22.114
vt -18.441289 12.598588
vt -17.472217 12.694194
vt -18.440886 12.757932
vt -18.497265 13.261433
vt -17.559891 13.166432
vt -17.528133 13.356434
vn 0.09296999020561203 -0.9297019020559097 -0.3563859624547408
vn 0.13216400830062688 -0.7929820498036356 -0.5947370373527582
vn 0.1259330396431604 -0.9864723105370931 -0.10494403303591454
vn 0.07422697237083324 -0.9872186325321193 0.14103094750469483
vn 0.060301999824641794 -0.9045339973696153 0.4221159987724867
vn 0.10235403039050263 -0.9650472865375401 0.24126207163445929
vn 0.10518000599394577 -0.6626350377619153 0.7415200422573747
vn 0.0424169779489247 -0.43830777213940836 0.8978235332535389
vn -0.018976001419850896 0.19608101467146838 0.980404073357267
vn -0.010606004191599745 0.16439006496861042 0.9863383898108721
vn -0.061659025890106314 0.9557204012989573 0.28774412082133594
vn 0.01176400002067523 0.7999450014059033 0.5999580010544261
vn -0.021552002337476422 0.9913701075215293 0.12930901402453318
vn -0.052558990581298336 0.9986178210452059 0
vn -0.05870601776737897 0.9079902748032983 -0.4148581255568307
vn -0.0539889697885638 0.9178044864100613 -0.39334477989002625
vn -0.027254006029922253 0.463325102510227 -0.8857691959755706
vn -0.02883999824928238 0.44702797286339124 -0.8940549457268433
vn 0.012652003446988198 -0.19610005342668244 -0.9805022671339569
vn 0.016174992690991527 -0.1617539269081078 -0.9866985541396384
usemtl material_0_0
f 1/1/1 2/2/1 3/3/1
f 1/4/2 4/5/2 2/6/2
f 5/7/3 4/8/3 1/9/3
f 5/10/4 6/11/4 4/12/4
f 7/13/5 6/14/5 5/15/5
f 8/16/6 6/17/6 7/18/6
f 7/19/7 9/20/7 8/21/7
f 9/22/8 10/23/8 8/24/8
f 11/25/9 10/26/9 9/27/9
f 11/28/10 12/29/10 10/30/10
f 11/31/11 13/32/11 12/33/11
f 12/34/12 13/35/12 14/36/12
f 14/37/13 13/38/13 15/39/13
f 14/40/14 15/41/14 16/42/14
f 16/43/15 15/44/15 17/45/15
f 16/46/16 17/47/16 18/48/16
f 17/49/17 19/50/17 18/51/17
f 19/52/18 20/53/18 18/54/18
f 3/55/19 20/56/19 19/57/19
f 3/58/20 2/59/20 20/60/20
