# SSTK version 0.8.0
# 21
mtllib original-21.mtl
o mesh20/mesh20-geometry#mesh20-geometry
v -0.096631 -0.223073 0.068660
v -0.096631 -0.235988 0.068660
v -0.096631 -0.191502 0.087315
v -0.096631 -0.267559 0.087315
v -0.096631 -0.191502 -0.010268
v -0.088020 -0.267559 0.095926
v -0.080845 -0.267559 0.084445
v 0.056920 -0.267559 0.084445
v 0.061225 -0.267559 -0.003093
v 0.056920 -0.267559 -0.007398
v 0.056920 -0.191502 -0.007398
v 0.072705 -0.267559 -0.010268
v 0.064095 -0.267559 -0.018878
v 0.072705 -0.191502 -0.010268
v 0.064095 -0.191502 -0.018878
v 0.061225 -0.191502 -0.003093
v 0.061225 -0.223073 0.008388
v 0.061225 -0.213028 0.012693
v 0.061225 -0.204417 0.021303
v 0.061225 -0.200112 0.032783
v 0.061225 -0.200112 0.044264
v 0.061225 -0.191502 0.080140
v 0.061225 -0.204417 0.055744
v 0.061225 -0.213028 0.064355
v 0.061225 -0.223073 0.068660
v 0.061225 -0.235988 0.068660
v 0.061225 -0.267559 0.080140
v 0.056920 -0.191502 0.084445
v 0.072705 -0.191502 0.087315
v 0.064095 -0.191502 0.095926
v -0.080845 -0.191502 0.084445
v -0.085150 -0.267559 0.080140
v -0.085150 -0.191502 0.080140
v -0.085150 -0.223073 0.068660
v -0.085150 -0.204417 0.055744
v -0.085150 -0.213028 0.064355
v -0.085150 -0.200112 0.044264
v -0.085150 -0.200112 0.032783
v -0.085150 -0.191502 -0.003093
v -0.085150 -0.204417 0.021303
v -0.080845 -0.191502 -0.007398
v -0.096631 -0.200112 0.044264
v -0.096631 -0.200112 0.032783
v -0.096631 -0.204417 0.055744
v -0.096631 -0.213028 0.064355
v -0.096631 -0.204417 0.021303
v -0.096631 -0.213028 0.012693
v -0.096631 -0.223073 0.008388
v -0.096631 -0.267559 -0.010268
v -0.096631 -0.235988 0.008388
v -0.096631 -0.254644 0.021303
v -0.096631 -0.246034 0.012693
v -0.096631 -0.258949 0.032783
v -0.096631 -0.258949 0.044264
v -0.096631 -0.254644 0.055744
v -0.096631 -0.246034 0.064355
v 0.072705 -0.267559 0.087315
v 0.072705 -0.258949 0.044264
v 0.072705 -0.258949 0.032783
v 0.072705 -0.254644 0.021303
v 0.072705 -0.246034 0.012693
v 0.072705 -0.235988 0.008388
v 0.072705 -0.223073 0.008388
v 0.072705 -0.213028 0.012693
v 0.072705 -0.200112 0.032783
v 0.072705 -0.204417 0.021303
v 0.072705 -0.200112 0.044264
v 0.072705 -0.204417 0.055744
v 0.072705 -0.213028 0.064355
v 0.072705 -0.223073 0.068660
v 0.072705 -0.235988 0.068660
v 0.072705 -0.246034 0.064355
v 0.072705 -0.254644 0.055744
v 0.064095 -0.267559 0.095926
v 0.061225 -0.258949 0.032783
v 0.061225 -0.258949 0.044264
v 0.061225 -0.254644 0.055744
v 0.061225 -0.246034 0.064355
v -0.088020 -0.191502 0.095926
v -0.085150 -0.267559 -0.003093
v -0.080845 -0.267559 -0.007398
v -0.088020 -0.267559 -0.018878
v -0.088020 -0.191502 -0.018878
v -0.085150 -0.258949 0.044264
v -0.085150 -0.254644 0.055744
v -0.085150 -0.246034 0.064355
v -0.085150 -0.235988 0.068660
v -0.085150 -0.258949 0.032783
v -0.085150 -0.254644 0.021303
v -0.085150 -0.235988 0.008388
v -0.085150 -0.246034 0.012693
v -0.085150 -0.223073 0.008388
v -0.085150 -0.213028 0.012693
v 0.061225 -0.254644 0.021303
v 0.061225 -0.246034 0.012693
v 0.061225 -0.235988 0.008388
vt -15.685192 12.78125
vt -15.685192 12.5
vt -16.091442 13.46875
vt -16.091442 11.8125
vt -13.966442 13.46875
vt -15.365475 13.46875
vt -15.365475 11.8125
vt -15.63064 11.8125
vt 16.091442 5.63862
vt 16.028942 5.98237
vt 16.278942 5.82612
vt 16.028942 8.98237
vt 14.122692 9.07612
vt -14.122692 9.07612
vt -14.028942 8.98237
vt -16.028942 5.98237
vt -16.271455 13.46875
vt -16.271455 11.8125
vt -16.404038 11.8125
vt 14.028942 8.98237
vt 13.966442 9.32612
vt 13.778942 9.13862
vt 16.470329 11.8125
vt 16.205164 11.8125
vt 16.470329 13.46875
vt 16.205164 13.46875
vt -13.966442 9.32612
vt -13.778942 9.13862
vt -16.404038 13.46875
vt -14.122692 11.8125
vt -14.372692 12.78125
vt -14.122692 13.46875
vt -14.466442 13
vt -14.653942 13.1875
vt -14.903942 13.28125
vt -15.153942 13.28125
vt -15.935192 13.46875
vt -15.403942 13.1875
vt -15.591442 13
vt -15.935192 11.8125
vt -4.850096 11.8125
vt -4.982679 11.8125
vt -4.850096 13.46875
vt -4.982679 13.46875
vt -15.935192 9.07612
vt -16.028942 8.98237
vt -16.091442 9.32612
vt -16.278942 9.13862
vt 5.98237 11.8125
vt 5.98237 13.46875
vt 8.98237 13.46875
vt 15.564348 11.8125
vt 15.431766 11.8125
vt 15.564348 13.46875
vt 15.431766 13.46875
vt 15.935192 11.8125
vt 15.685192 12.78125
vt 15.935192 13.46875
vt 15.591442 13
vt 15.403942 13.1875
vt -15.935192 5.88862
vt -14.122692 5.88862
vt -16.091442 5.63862
vt -13.966442 5.63862
vt -14.028942 5.98237
vt -13.966442 11.8125
vt -14.372692 12.5
vt -14.653942 12.09375
vt 14.653942 12.09375
vt 14.466442 12.28125
vt 14.372692 12.5
vt -14.903942 12
vt -15.153942 12
vt -15.403942 12.09375
vt 15.591442 12.28125
vt 15.403942 12.09375
vt 15.685192 12.5
vt 13.966442 5.63862
vt 15.935192 5.88862
vt 16.091442 9.32612
vt 16.091442 11.8125
vt 13.966442 11.8125
vt 15.153942 12
vt 14.903942 12
vt 13.966442 13.46875
vt 14.372692 12.78125
vt 14.466442 13
vt 14.903942 13.28125
vt 16.091442 13.46875
vt 15.153942 13.28125
vt 4.783805 13.46875
vt 5.04897 13.46875
vt 4.783805 11.8125
vt 5.04897 11.8125
vt 15.935192 9.07612
vt 16.278942 9.13862
vt 8.98237 11.8125
vt -16.278942 5.82612
vt -15.63064 13.46875
vt -5.82612 13.46875
vt -5.82612 11.8125
vt -9.13862 11.8125
vt -9.13862 13.46875
vt 14.122692 5.88862
vt 14.028942 5.98237
vt 13.778942 5.82612
vt 9.13862 11.8125
vt 5.82612 11.8125
vt 9.13862 13.46875
vt 5.82612 13.46875
vt -13.778942 5.82612
vt -5.888659 11.8125
vt -5.888659 13.46875
vt -5.623494 13.46875
vt -5.623494 11.8125
vt -5.98237 13.46875
vt -5.98237 11.8125
vt -8.98237 11.8125
vt -15.591442 12.28125
vt 14.653942 13.1875
vt -5.822368 11.8125
vt -5.822368 13.46875
vt -5.689785 11.8125
vt 5.689785 13.46875
vt 5.822368 13.46875
vt 5.689785 11.8125
vt -8.98237 13.46875
vt -14.466442 12.28125
vn -1 0 0
vn 1 0 0
vn -0.7071067811865476 0 0.7071067811865476
vn 0.7071067811865476 0 -0.7071067811865476
vn 0 -1 0
vn 0 1 0
vn -0.7071067811865476 0 -0.7071067811865476
vn 0.7071067811865476 0 0.7071067811865476
vn 0 0 -1
vn 0 0 1
usemtl material_0_0
f 1/1/1 2/2/1 3/3/1
f 3/3/2 2/2/2 1/1/2
f 2/2/1 4/4/1 3/3/1
f 3/3/2 4/4/2 2/2/2
f 5/5/1 4/4/1 3/3/1
f 3/3/2 4/4/2 5/5/2
f 3/6/3 4/7/3 6/8/3
f 6/8/4 4/7/4 3/6/4
f 4/9/5 7/10/5 6/11/5
f 6/11/6 7/10/6 4/9/6
f 7/10/5 8/12/5 6/11/5
f 7/10/5 9/13/5 8/12/5
f 9/14/6 10/15/6 7/16/6
f 11/17/3 10/18/3 9/19/3
f 9/19/4 10/18/4 11/17/4
f 10/20/5 12/21/5 9/13/5
f 13/22/5 12/21/5 10/20/5
f 12/23/4 13/24/4 14/25/4
f 14/25/3 13/24/3 12/23/3
f 13/24/4 15/26/4 14/25/4
f 14/25/3 15/26/3 13/24/3
f 14/27/6 15/28/6 16/14/6
f 16/14/5 15/28/5 14/27/5
f 15/28/6 11/15/6 16/14/6
f 16/14/5 11/15/5 15/28/5
f 16/29/3 11/17/3 9/19/3
f 9/19/4 11/17/4 16/29/4
f 9/30/1 17/31/1 16/32/1
f 16/32/2 17/31/2 9/30/2
f 17/31/1 18/33/1 16/32/1
f 16/32/2 18/33/2 17/31/2
f 18/33/1 19/34/1 16/32/1
f 16/32/2 19/34/2 18/33/2
f 19/34/1 20/35/1 16/32/1
f 16/32/2 20/35/2 19/34/2
f 20/35/1 21/36/1 16/32/1
f 16/32/2 21/36/2 20/35/2
f 16/32/1 21/36/1 22/37/1
f 22/37/2 21/36/2 16/32/2
f 21/36/1 23/38/1 22/37/1
f 22/37/2 23/38/2 21/36/2
f 23/38/1 24/39/1 22/37/1
f 22/37/2 24/39/2 23/38/2
f 24/39/1 25/1/1 22/37/1
f 22/37/2 25/1/2 24/39/2
f 25/1/1 26/2/1 22/37/1
f 22/37/2 26/2/2 25/1/2
f 26/2/1 27/40/1 22/37/1
f 22/37/2 27/40/2 26/2/2
f 27/41/7 8/42/7 22/43/7
f 22/43/8 8/42/8 27/41/8
f 8/42/7 28/44/7 22/43/7
f 22/43/8 28/44/8 8/42/8
f 22/45/6 28/46/6 29/47/6
f 29/47/5 28/46/5 22/45/5
f 29/47/6 28/46/6 30/48/6
f 30/48/5 28/46/5 29/47/5
f 28/46/6 31/16/6 30/48/6
f 7/49/9 31/50/9 28/51/9
f 7/52/4 32/53/4 31/54/4
f 31/54/3 32/53/3 7/52/3
f 32/53/4 33/55/4 31/54/4
f 32/56/2 34/57/2 33/58/2
f 33/58/1 34/57/1 32/56/1
f 35/38/1 34/1/1 33/37/1
f 36/59/2 34/57/2 35/60/2
f 35/60/1 34/57/1 36/59/1
f 33/37/2 34/1/2 35/38/2
f 37/36/1 35/38/1 33/37/1
f 33/37/2 35/38/2 37/36/2
f 38/35/1 37/36/1 33/37/1
f 33/37/2 37/36/2 38/35/2
f 39/32/1 38/35/1 33/37/1
f 40/34/1 38/35/1 39/32/1
f 39/32/2 38/35/2 40/34/2
f 33/37/2 38/35/2 39/32/2
f 33/61/6 39/62/6 3/63/6
f 3/63/5 39/62/5 33/61/5
f 39/62/6 5/64/6 3/63/6
f 41/65/6 5/64/6 39/62/6
f 39/62/5 5/64/5 41/65/5
f 3/63/5 5/64/5 39/62/5
f 5/5/1 42/36/1 3/3/1
f 43/35/1 42/36/1 5/5/1
f 5/5/2 42/36/2 43/35/2
f 3/3/2 42/36/2 5/5/2
f 42/36/1 44/38/1 3/3/1
f 3/3/2 44/38/2 42/36/2
f 44/38/1 1/1/1 3/3/1
f 45/59/2 1/57/2 44/60/2
f 44/60/1 1/57/1 45/59/1
f 3/3/2 1/1/2 44/38/2
f 46/34/1 43/35/1 5/5/1
f 5/5/2 43/35/2 46/34/2
f 47/33/1 46/34/1 5/5/1
f 5/5/2 46/34/2 47/33/2
f 48/31/1 47/33/1 5/5/1
f 5/5/2 47/33/2 48/31/2
f 49/66/1 48/31/1 5/5/1
f 49/66/1 50/67/1 48/31/1
f 48/31/2 50/67/2 49/66/2
f 49/66/1 51/68/1 50/67/1
f 50/67/2 51/68/2 49/66/2
f 51/69/2 52/70/2 50/71/2
f 50/71/1 52/70/1 51/69/1
f 49/66/1 53/72/1 51/68/1
f 51/68/2 53/72/2 49/66/2
f 49/66/1 4/4/1 53/72/1
f 49/66/1 4/4/1 5/5/1
f 5/5/2 4/4/2 49/66/2
f 53/72/2 4/4/2 49/66/2
f 53/72/1 4/4/1 54/73/1
f 54/73/2 4/4/2 53/72/2
f 54/73/1 4/4/1 55/74/1
f 55/74/2 4/4/2 54/73/2
f 55/74/1 4/4/1 2/2/1
f 2/2/2 4/4/2 55/74/2
f 56/75/2 55/76/2 2/77/2
f 2/77/1 55/76/1 56/75/1
f 49/78/5 32/79/5 4/9/5
f 4/9/6 32/79/6 49/78/6
f 32/79/5 7/10/5 4/9/5
f 32/79/5 10/20/5 7/10/5
f 7/10/6 10/20/6 32/79/6
f 7/16/5 10/15/5 9/14/5
f 9/13/6 12/21/6 10/20/6
f 9/13/5 12/21/5 57/80/5
f 57/80/6 12/21/6 9/13/6
f 57/81/2 12/82/2 58/83/2
f 58/83/1 12/82/1 57/81/1
f 58/83/2 12/82/2 59/84/2
f 59/84/1 12/82/1 58/83/1
f 59/84/2 12/82/2 60/69/2
f 60/69/1 12/82/1 59/84/1
f 60/69/2 12/82/2 61/70/2
f 61/70/1 12/82/1 60/69/1
f 61/70/2 12/82/2 62/71/2
f 62/71/1 12/82/1 61/70/1
f 62/71/2 12/82/2 14/85/2
f 14/85/1 12/82/1 62/71/1
f 63/86/2 62/71/2 14/85/2
f 14/85/1 62/71/1 63/86/1
f 64/87/2 63/86/2 14/85/2
f 14/85/1 63/86/1 64/87/1
f 65/88/2 64/87/2 14/85/2
f 14/85/1 64/87/1 65/88/1
f 66/34/1 64/33/1 65/35/1
f 65/35/2 64/33/2 66/34/2
f 29/89/2 65/88/2 14/85/2
f 14/85/1 65/88/1 29/89/1
f 67/90/2 65/88/2 29/89/2
f 29/89/1 65/88/1 67/90/1
f 68/60/2 67/90/2 29/89/2
f 29/89/1 67/90/1 68/60/1
f 69/59/2 68/60/2 29/89/2
f 29/89/1 68/60/1 69/59/1
f 70/57/2 69/59/2 29/89/2
f 29/89/1 69/59/1 70/57/1
f 57/81/2 70/57/2 29/89/2
f 29/89/1 70/57/1 57/81/1
f 57/81/2 71/77/2 70/57/2
f 70/57/1 71/77/1 57/81/1
f 57/81/2 72/75/2 71/77/2
f 71/77/1 72/75/1 57/81/1
f 57/81/2 73/76/2 72/75/2
f 72/75/1 73/76/1 57/81/1
f 57/81/2 58/83/2 73/76/2
f 73/76/1 58/83/1 57/81/1
f 29/91/8 30/92/8 57/93/8
f 57/93/7 30/92/7 29/91/7
f 30/92/8 74/94/8 57/93/8
f 57/93/7 74/94/7 30/92/7
f 27/95/5 57/80/5 74/96/5
f 27/95/5 9/13/5 57/80/5
f 57/80/6 9/13/6 27/95/6
f 9/30/1 27/40/1 75/72/1
f 75/72/2 27/40/2 9/30/2
f 75/72/1 27/40/1 76/73/1
f 76/73/2 27/40/2 75/72/2
f 76/73/1 27/40/1 77/74/1
f 77/74/2 27/40/2 76/73/2
f 77/74/1 27/40/1 26/2/1
f 26/2/2 27/40/2 77/74/2
f 78/75/2 77/76/2 26/77/2
f 26/77/1 77/76/1 78/75/1
f 9/13/5 27/95/5 8/12/5
f 8/12/6 27/95/6 9/13/6
f 8/12/5 27/95/5 74/96/5
f 74/96/6 27/95/6 8/12/6
f 74/96/6 57/80/6 27/95/6
f 6/11/5 8/12/5 74/96/5
f 74/96/6 8/12/6 6/11/6
f 6/11/6 8/12/6 7/10/6
f 8/12/6 9/13/6 7/10/6
f 8/97/9 7/49/9 28/51/9
f 28/51/10 7/49/10 8/97/10
f 28/51/10 31/50/10 7/49/10
f 30/48/5 31/16/5 28/46/5
f 30/48/6 31/16/6 79/98/6
f 79/98/5 31/16/5 30/48/5
f 31/16/6 33/61/6 79/98/6
f 31/54/3 33/55/3 32/53/3
f 79/98/5 33/61/5 31/16/5
f 33/61/6 3/63/6 79/98/6
f 79/98/5 3/63/5 33/61/5
f 79/99/3 3/6/3 6/8/3
f 6/8/4 3/6/4 79/99/4
f 79/100/10 6/101/10 74/102/10
f 74/102/9 6/101/9 79/100/9
f 30/103/10 79/100/10 74/102/10
f 74/102/9 79/100/9 30/103/9
f 80/30/1 32/40/1 33/37/1
f 80/104/5 10/20/5 32/79/5
f 81/105/5 10/20/5 80/104/5
f 81/105/5 13/22/5 10/20/5
f 82/106/5 13/22/5 81/105/5
f 13/107/9 82/108/9 15/109/9
f 15/109/10 82/108/10 13/107/10
f 82/108/9 83/110/9 15/109/9
f 15/109/10 83/110/10 82/108/10
f 15/28/6 83/111/6 11/15/6
f 11/15/5 83/111/5 15/28/5
f 11/15/6 83/111/6 41/65/6
f 41/65/5 83/111/5 11/15/5
f 83/111/6 5/64/6 41/65/6
f 49/112/7 5/113/7 83/114/7
f 83/114/8 5/113/8 49/112/8
f 41/65/5 5/64/5 83/111/5
f 5/5/2 48/31/2 49/66/2
f 82/115/7 49/112/7 83/114/7
f 83/114/8 49/112/8 82/115/8
f 49/78/5 82/106/5 80/104/5
f 80/104/6 82/106/6 49/78/6
f 82/106/5 81/105/5 80/104/5
f 81/105/6 13/22/6 82/106/6
f 10/20/6 13/22/6 81/105/6
f 10/20/6 12/21/6 13/22/6
f 41/116/10 81/117/10 10/118/10
f 10/118/9 81/117/9 41/116/9
f 80/104/6 10/20/6 81/105/6
f 32/79/6 10/20/6 80/104/6
f 49/78/5 80/104/5 32/79/5
f 32/79/6 80/104/6 49/78/6
f 33/37/2 32/40/2 80/30/2
f 80/30/1 32/40/1 84/73/1
f 84/73/2 32/40/2 80/30/2
f 84/73/1 32/40/1 85/74/1
f 85/74/2 32/40/2 84/73/2
f 85/74/1 32/40/1 86/119/1
f 86/119/2 32/40/2 85/74/2
f 86/119/1 32/40/1 87/2/1
f 87/2/2 32/40/2 86/119/2
f 87/2/1 32/40/1 34/1/1
f 34/1/2 32/40/2 87/2/2
f 88/72/1 80/30/1 84/73/1
f 84/73/2 80/30/2 88/72/2
f 80/30/1 88/72/1 89/68/1
f 89/68/2 88/72/2 80/30/2
f 80/30/1 89/68/1 90/67/1
f 90/67/2 89/68/2 80/30/2
f 89/69/2 91/70/2 90/71/2
f 90/71/1 91/70/1 89/69/1
f 80/30/1 90/67/1 39/32/1
f 39/32/2 90/67/2 80/30/2
f 90/67/1 92/31/1 39/32/1
f 39/32/2 92/31/2 90/67/2
f 92/31/1 40/34/1 39/32/1
f 92/86/2 93/87/2 40/120/2
f 40/120/1 93/87/1 92/86/1
f 39/32/2 40/34/2 92/31/2
f 80/121/7 39/122/7 81/123/7
f 81/123/8 39/122/8 80/121/8
f 41/124/8 39/125/8 81/126/8
f 81/126/7 39/125/7 41/124/7
f 39/32/1 80/30/1 33/37/1
f 33/37/2 80/30/2 39/32/2
f 80/104/6 81/105/6 82/106/6
f 11/127/10 41/116/10 10/118/10
f 10/118/9 41/116/9 11/127/9
f 9/30/1 75/72/1 94/68/1
f 94/68/2 75/72/2 9/30/2
f 9/30/1 94/68/1 95/128/1
f 95/128/2 94/68/2 9/30/2
f 9/30/1 95/128/1 96/67/1
f 96/67/2 95/128/2 9/30/2
f 9/30/1 96/67/1 17/31/1
f 17/31/2 96/67/2 9/30/2
f 14/27/6 22/45/6 29/47/6
f 14/27/6 16/14/6 22/45/6
f 22/45/5 16/14/5 14/27/5
f 29/47/5 22/45/5 14/27/5
f 4/9/6 7/10/6 32/79/6
