# Blender v2.93.4 OBJ File: ''
# www.blender.org
mtllib new-3-top.mtl
o new-3
v 0.444563 0.770810 0.391273
v -0.444406 0.770810 -0.497696
v -0.444406 0.770810 0.391273
v 0.444563 0.770810 -0.497696
v -0.444216 0.770810 0.449735
v -0.444406 0.770810 0.446834
v -0.443649 0.770810 0.452586
v -0.442714 0.770810 0.455339
vt 0.000000 0.032407
vt 0.000000 0.032407
vt 0.000000 0.032407
vt 0.000000 0.032407
vt 0.000000 0.032407
vt 0.000079 0.008051
vt 0.000000 0.009259
vt 0.370370 0.032407
vt 0.000316 0.006863
vt 0.000705 0.005716
vn 0.0000 1.0000 0.0000
vn 0.0000 -1.0000 -0.0000
vn 0.0000 1.0000 0.0001
usemtl material-0.002
s 1
f 2/1/1 1/2/1 4/3/1
usemtl material-1.002
f 3/4/2 2/1/2 1/2/2
f 1/2/2 5/5/2 3/4/2
usemtl material-2.002
f 5/6/1 3/4/1 6/7/1
f 1/8/1 5/6/3 7/9/1
f 1/8/1 7/9/1 8/10/1
