# Blender v2.93.4 OBJ File: ''
# www.blender.org
mtllib new-3-left.mtl
o new-3
v -0.444406 0.770810 -0.497696
v -0.444406 0.770810 0.391273
v -0.444406 -0.712658 0.391273
v -0.444406 -0.745994 0.391273
v -0.444406 -0.745994 -0.497696
v -0.444216 0.770810 0.449735
v -0.444406 0.770810 0.446834
v -0.443649 0.770810 0.452586
v -0.442714 0.770810 0.455339
vt 0.000000 0.032407
vt 0.000000 0.032407
vt 0.000000 0.032407
vt 0.000000 0.032407
vt 0.000000 0.032407
vt 0.000079 0.008051
vt 0.000000 0.009259
vn -1.0000 0.0000 0.0000
vn 1.0000 0.0000 0.0000
vn 0.0000 1.0000 0.0000
usemtl material-0.002
s 1
f 3/1/1 1/2/1 4/3/1
usemtl material-1.002
f 2/4/2 3/1/2 1/2/2
f 5/5/2 1/2/2 4/3/2
usemtl material-2.002
f 6/6/3 2/4/3 7/7/3
l 6 8
l 8 9
