# SSTK version 0.8.0
# 16
mtllib original-16.mtl
o tall_unit_fingerpull2/tall_unit_fingerpull/mesh17/mesh17-geometry#mesh17-geometry
v 0.014981 0.906347 0.217909
v 0.015441 -0.839245 0.217874
v 0.014981 -0.839245 0.217909
v 0.015441 0.906347 0.217874
v 0.014532 -0.839245 0.218013
v 0.014532 0.906347 0.218013
v 0.016349 -0.839245 0.217754
v 0.016349 0.906347 0.217754
v 0.014104 -0.839245 0.218184
v 0.014104 0.906347 0.218184
v 0.017194 -0.839245 0.217404
v 0.013706 -0.839245 0.218418
v 0.013706 0.906347 0.218418
v 0.017194 0.906347 0.217404
v 0.012785 -0.839245 0.219436
v 0.013349 -0.839245 0.218709
v 0.013349 0.906347 0.218709
v 0.012785 0.906347 0.219436
v 0.017920 -0.839245 0.216847
v 0.012592 -0.839245 0.219855
v 0.013039 -0.839245 0.219051
v 0.013039 0.906347 0.219051
v 0.012592 0.906347 0.219855
v 0.017920 0.906347 0.216847
v 0.012418 -0.839245 0.221217
v 0.012465 -0.839245 0.220299
v 0.012465 0.906347 0.220299
v 0.012418 0.906347 0.221217
v 0.018477 -0.839245 0.216121
v 0.012499 -0.839245 0.221671
v 0.012407 -0.839245 0.220756
v 0.012407 0.906347 0.220756
v 0.012499 0.906347 0.221671
v 0.018477 0.906347 0.216121
v 0.021444 -0.839245 0.223627
v 0.012499 0.906347 0.223627
v 0.021444 0.906347 0.223627
v 0.018827 0.906347 0.215276
v 0.018827 -0.839245 0.215276
v 0.012499 -0.839245 0.223627
v 0.021444 -0.839245 0.206431
v 0.021444 0.906347 0.206431
v 0.018947 -0.839245 0.214369
v 0.018947 0.906347 0.214369
v 0.018827 -0.839245 0.213461
v 0.003554 0.906347 0.206431
v 0.018827 0.906347 0.213461
v 0.018477 -0.839245 0.212616
v 0.003554 -0.839245 0.206431
v 0.003554 0.906347 0.210863
v 0.018477 0.906347 0.212616
v 0.017920 -0.839245 0.211890
v 0.015441 -0.839245 0.210863
v 0.003554 -0.839245 0.210863
v 0.015441 0.906347 0.210863
v 0.017920 0.906347 0.211890
v 0.017194 -0.839245 0.211333
v 0.016349 -0.839245 0.210983
v 0.016349 0.906347 0.210983
v 0.017194 0.906347 0.211333
vt 0.015523 0
vt 0.016128 1.832633
vt 0.015523 1.832633
vt 0.016128 0
vt 0.00755 0.01248
vt 0.007367 0.011525
vt 0.007504 0.011997
vt 0.016304 1.832633
vt 0.015699 0
vt 0.016304 0
vt -0.007367 0.011525
vt -0.00755 0.01248
vt -0.007504 0.011997
vt 0.016452 0
vt 0.017653 1.832633
vt 0.016452 1.832633
vt 0.007706 0.013432
vt 0.015699 1.832633
vt -0.007706 0.013432
vt 0.017653 0
vt 0.007142 0.011076
vt 0.016111 1.832633
vt 0.015506 0
vt 0.016111 0
vt -0.007142 0.011076
vt 0.018462 0
vt 0.019662 1.832633
vt 0.018462 1.832633
vt 0.006836 0.010658
vt 0.015506 1.832633
vt -0.006836 0.010658
vt 0.019662 0
vt 0.008166 0.01432
vt 0.005499 0.009691
vt 0.006453 0.010283
vt 0.014949 0
vt 0.015554 1.832633
vt 0.014949 1.832633
vt 0.015554 0
vt -0.006453 0.010283
vt -0.005499 0.009691
vt -0.008166 0.01432
vt 0.019172 0
vt 0.020373 1.832633
vt 0.019172 1.832633
vt 0.004949 0.009489
vt 0.006004 0.009958
vt 0.014041 0
vt 0.014646 1.832633
vt 0.014041 1.832633
vt 0.014646 0
vt -0.006004 0.009958
vt -0.004949 0.009489
vt 0.020373 0
vt 0.008897 0.015082
vt 0.003162 0.009306
vt 0.004367 0.009355
vt 0.009455 1.832633
vt 0.01006 0
vt 0.01006 1.832633
vt 0.011262 1.832633
vt 0.011867 0
vt 0.011867 1.832633
vt 0.012802 1.832633
vt 0.013408 0
vt 0.013408 1.832633
vt 0.012802 0
vt -0.004367 0.009355
vt 0.009455 0
vt 0.011262 0
vt -0.003162 0.009306
vt -0.008897 0.015082
vt 0.018535 0
vt 0.019736 1.832633
vt 0.018535 1.832633
vt 0.002566 0.009391
vt 0.003767 0.009294
vt 0.007423 1.832633
vt 0.008028 0
vt 0.008028 1.832633
vt -0.003767 0.009294
vt 0.007423 0
vt -0.002566 0.009391
vt 0.019736 0
vt 0 0.018781
vt 0.00985 0.015667
vt 0.000466 1.832633
vt 0.001071 0
vt 0.001071 1.832633
vt 0.002876 1.832633
vt 0.003481 0
vt 0.003481 1.832633
vt 0.005213 1.832633
vt 0.005818 0
vt 0.005818 1.832633
vt 0.005213 0
vt 0 0.009391
vt 0.000466 0
vt 0.002876 0
vt -0.00985 0.015667
vt 0.017795 0
vt 0.016594 1.832633
vt 0.016594 0
vt 0.010959 0.016035
vt 0.002566 0
vt 0 1.832633
vt 0 0
vt 0.002566 1.832633
vt -0.010959 0.016035
vt 0.017795 1.832633
vt 0.022566 0.018781
vt -0.023477 1.832633
vt -0.011738 0
vt -0.011738 1.832633
vt -0.023477 0
vt -0.022566 0.018781
vt 0.013481 0
vt 0.014682 1.832633
vt 0.013481 1.832633
vt 0.01215 0.01616
vt -0.022566 0
vt -0.022566 1.832633
vt -0.01215 0.01616
vt 0.014682 0
vt 0.01334 0.016035
vt 0.023477 1.832633
vt 0.023477 0
vt -0.01334 0.016035
vt 0.01061 0
vt 0.009409 1.832633
vt 0.009409 0
vt 0.01061 1.832633
vt 0.01445 0.015667
vt -0.01675 0
vt -0.01445 0.015667
vt 0.005855 0
vt 0.004654 1.832633
vt 0.004654 0
vt 0.005855 1.832633
vt 0.015402 0.015082
vt 0.01675 0.01248
vt 0.022566 0
vt 0.01675 1.832633
vt 0.022566 1.832633
vt -0.01675 0.01248
vt 0.01675 0
vt -0.015402 0.015082
vt 0.000743 0
vt -0.000458 1.832633
vt -0.000458 0
vt 0.000743 1.832633
vt 0.016133 0.01432
vt 0.016593 0.013432
vt -0.016593 0.013432
vt -0.0156 1.832633
vt -0.0156 0
vt -0.016133 0.01432
vt -0.00438 0
vt -0.005581 1.832633
vt -0.005581 0
vt -0.00438 1.832633
vt -0.014481 1.832633
vt -0.01328 0
vt -0.01328 1.832633
vt -0.014481 0
vt -0.009163 0
vt -0.010363 1.832633
vt -0.010363 0
vt -0.009163 1.832633
vn -0.15134793155556203 0 -0.9884805529770694
vn -0.07589299753708253 0 -0.9971159676410946
vn 0.15134793155556203 0 0.9884805529770694
vn 0.07589299753708253 0 0.9971159676410946
vn 0 -1 0
vn 0 1 0
vn -0.2992079750747798 0 -0.9541879205123327
vn 0.2992079750747798 0 0.9541879205123327
vn -0.13052598533534113 0 -0.9914448886106773
vn -0.2588189595935754 0 -0.965925849201117
vn 0.13052598533534113 0 0.9914448886106773
vn 0.2588189595935754 0 0.965925849201117
vn -0.4401758083651017 0 -0.8979116090852869
vn 0.4401758083651017 0 0.8979116090852869
vn -0.5000001748438417 0 -0.8660253028382762
vn 0.5000001748438417 0 0.8660253028382762
vn -0.5710018445147914 0 -0.8209487764536263
vn 0.5710018445147914 0 0.8209487764536263
vn -0.7071067811865475 0 -0.7071067811865475
vn 0.7071067811865475 0 0.7071067811865475
vn -0.6886730323287231 0 -0.7250720340374198
vn 0.6886730323287231 0 0.7250720340374198
vn -0.9375263974775258 0 -0.3479141475031049
vn -0.874070658482305 0 -0.48579881018824017
vn 0.874070658482305 0 0.48579881018824017
vn 0.9375263974775258 0 0.3479141475031049
vn -0.7904777258762055 0 -0.6124907875989503
vn 0.7904777258762055 0 0.6124907875989503
vn -0.8660253028382762 0 -0.5000001748438417
vn 0.8660253028382762 0 0.5000001748438417
vn -0.9793826489476979 0 -0.2020139275896358
vn 0.9793826489476979 0 0.2020139275896358
vn -0.9844792449177926 0 0.17550104366097954
vn -0.9949592536743462 0 0.10028002556734844
vn 0.9949592536743462 0 -0.10028002556734844
vn 0.9844792449177926 0 -0.17550104366097954
vn -0.9986750563127913 0 -0.051460002901700996
vn 0.9986750563127913 0 0.051460002901700996
vn -0.965925849201117 0 -0.2588189595935754
vn 0.965925849201117 0 0.2588189595935754
vn -1 0 0
vn 1 0 0
vn 0 0 1
vn 0 0 -1
vn -0.965925849201117 0 0.2588189595935754
vn 0.965925849201117 0 -0.2588189595935754
vn -0.8660253028382762 0 0.5000001748438417
vn 0.8660253028382762 0 -0.5000001748438417
vn -0.7071067811865475 0 0.7071067811865475
vn 0.7071067811865475 0 -0.7071067811865475
vn -0.5000001748438417 0 0.8660253028382762
vn 0.5000001748438417 0 -0.8660253028382762
vn -0.2588189595935754 0 0.965925849201117
vn -0.13052598533534113 0 0.9914448886106773
vn 0.13052598533534113 0 -0.9914448886106773
vn 0.2588189595935754 0 -0.965925849201117
usemtl material_0_0
f 1/1/1 2/2/2 3/3/1
f 2/2/2 1/1/1 4/4/2
f 3/3/3 2/2/4 1/1/3
f 4/4/4 1/1/3 2/2/4
f 2/5/5 5/6/5 3/7/5
f 3/7/6 5/6/6 2/5/6
f 3/8/1 6/9/7 1/10/1
f 1/10/3 6/9/8 3/8/3
f 6/11/6 4/12/6 1/13/6
f 1/13/5 4/12/5 6/11/5
f 4/14/9 7/15/10 2/16/9
f 2/16/11 7/15/12 4/14/11
f 7/17/5 5/6/5 2/5/5
f 2/5/6 5/6/6 7/17/6
f 6/9/7 3/8/1 5/18/7
f 5/18/8 3/8/3 6/9/8
f 6/11/6 8/19/6 4/12/6
f 4/12/5 8/19/5 6/11/5
f 7/15/10 4/14/9 8/20/10
f 8/20/12 4/14/11 7/15/12
f 7/17/5 9/21/5 5/6/5
f 5/6/6 9/21/6 7/17/6
f 5/22/7 10/23/13 6/24/7
f 6/24/8 10/23/14 5/22/8
f 10/25/6 8/19/6 6/11/6
f 6/11/5 8/19/5 10/25/5
f 8/26/10 11/27/15 7/28/10
f 7/28/12 11/27/16 8/26/12
f 7/17/5 12/29/5 9/21/5
f 9/21/6 12/29/6 7/17/6
f 10/23/13 5/22/7 9/30/13
f 9/30/14 5/22/8 10/23/14
f 13/31/6 8/19/6 10/25/6
f 10/25/5 8/19/5 13/31/5
f 11/27/15 8/26/10 14/32/15
f 14/32/16 8/26/12 11/27/16
f 11/33/5 15/34/5 7/17/5
f 7/17/6 15/34/6 11/33/6
f 7/17/5 16/35/5 12/29/5
f 12/29/6 16/35/6 7/17/6
f 13/36/17 9/37/13 12/38/17
f 12/38/18 9/37/14 13/36/18
f 9/37/13 13/36/17 10/39/13
f 10/39/14 13/36/18 9/37/14
f 17/40/6 8/19/6 13/31/6
f 13/31/5 8/19/5 17/40/5
f 18/41/6 14/42/6 8/19/6
f 8/19/5 14/42/5 18/41/5
f 14/43/15 19/44/19 11/45/15
f 11/45/16 19/44/20 14/43/16
f 11/33/5 20/46/5 15/34/5
f 15/34/6 20/46/6 11/33/6
f 7/17/5 15/34/5 21/47/5
f 21/47/6 15/34/6 7/17/6
f 7/17/5 21/47/5 16/35/5
f 16/35/6 21/47/6 7/17/6
f 17/48/21 12/49/17 16/50/21
f 16/50/22 12/49/18 17/48/22
f 12/49/17 17/48/21 13/51/17
f 13/51/18 17/48/22 12/49/18
f 22/52/6 8/19/6 17/40/6
f 17/40/5 8/19/5 22/52/5
f 23/53/6 14/42/6 18/41/6
f 18/41/5 14/42/5 23/53/5
f 18/41/6 8/19/6 22/52/6
f 22/52/5 8/19/5 18/41/5
f 19/44/19 14/43/15 24/54/19
f 24/54/20 14/43/16 19/44/20
f 19/55/5 25/56/5 11/33/5
f 11/33/6 25/56/6 19/55/6
f 11/33/5 26/57/5 20/46/5
f 20/46/6 26/57/6 11/33/6
f 20/58/23 18/59/24 15/60/24
f 15/60/25 18/59/25 20/58/26
f 15/61/24 22/62/27 21/63/27
f 21/63/28 22/62/28 15/61/25
f 21/64/27 17/65/21 16/66/21
f 16/66/22 17/65/22 21/64/28
f 17/65/21 21/64/27 22/67/27
f 22/67/28 21/64/28 17/65/22
f 27/68/6 14/42/6 23/53/6
f 23/53/5 14/42/5 27/68/5
f 18/59/24 20/58/23 23/69/23
f 23/69/26 20/58/26 18/59/25
f 22/62/27 15/61/24 18/70/24
f 18/70/25 15/61/25 22/62/28
f 28/71/6 24/72/6 14/42/6
f 14/42/5 24/72/5 28/71/5
f 24/73/19 29/74/29 19/75/19
f 19/75/20 29/74/30 24/73/20
f 19/55/5 30/76/5 25/56/5
f 25/56/6 30/76/6 19/55/6
f 11/33/5 25/56/5 31/77/5
f 31/77/6 25/56/6 11/33/6
f 11/33/5 31/77/5 26/57/5
f 26/57/6 31/77/6 11/33/6
f 26/78/31 23/79/23 20/80/23
f 20/80/26 23/79/26 26/78/32
f 32/81/6 14/42/6 27/68/6
f 27/68/5 14/42/5 32/81/5
f 23/79/23 26/78/31 27/82/31
f 27/82/32 26/78/32 23/79/26
f 33/83/6 24/72/6 28/71/6
f 28/71/5 24/72/5 33/83/5
f 28/71/6 14/42/6 32/81/6
f 32/81/5 14/42/5 28/71/5
f 29/74/29 24/73/19 34/84/29
f 34/84/30 24/73/20 29/74/30
f 35/85/5 19/55/5 29/86/5
f 29/86/6 19/55/6 35/85/6
f 35/85/5 30/76/5 19/55/5
f 19/55/6 30/76/6 35/85/6
f 30/87/33 28/88/34 25/89/34
f 25/89/35 28/88/35 30/87/36
f 25/90/34 32/91/37 31/92/37
f 31/92/38 32/91/38 25/90/35
f 31/93/37 27/94/31 26/95/31
f 26/95/32 27/94/32 31/93/38
f 27/94/31 31/93/37 32/96/37
f 32/96/38 31/93/38 27/94/32
f 36/97/6 24/72/6 33/83/6
f 33/83/5 24/72/5 36/97/5
f 28/88/34 30/87/33 33/98/33
f 33/98/36 30/87/36 28/88/35
f 32/91/37 25/90/34 28/99/34
f 28/99/35 25/90/35 32/91/38
f 24/72/6 37/85/6 34/100/6
f 34/100/5 37/85/5 24/72/5
f 38/101/39 29/102/29 34/103/29
f 34/103/30 29/102/30 38/101/40
f 35/85/5 29/86/5 39/104/5
f 39/104/6 29/86/6 35/85/6
f 30/76/5 35/85/5 40/97/5
f 40/97/6 35/85/6 30/76/6
f 37/85/6 24/72/6 36/97/6
f 36/97/5 24/72/5 37/85/5
f 33/105/41 40/106/41 36/107/41
f 36/107/42 40/106/42 33/105/42
f 40/106/41 33/105/41 30/108/41
f 30/108/42 33/105/42 40/106/42
f 34/100/6 37/85/6 38/109/6
f 38/109/5 37/85/5 34/100/5
f 29/102/29 38/101/39 39/110/39
f 39/110/40 38/101/40 29/102/30
f 35/85/5 39/104/5 41/111/5
f 41/111/6 39/104/6 35/85/6
f 35/112/43 36/113/43 40/114/43
f 40/114/44 36/113/44 35/112/44
f 36/113/43 35/112/43 37/115/43
f 37/115/44 35/112/44 36/113/44
f 38/109/6 37/85/6 42/116/6
f 42/116/5 37/85/5 38/109/5
f 38/117/39 43/118/41 39/119/39
f 39/119/40 43/118/42 38/117/40
f 41/111/5 39/104/5 43/120/5
f 43/120/6 39/104/6 41/111/6
f 42/121/42 35/106/42 41/122/42
f 41/122/41 35/106/41 42/121/41
f 35/106/42 42/121/42 37/107/42
f 37/107/41 42/121/41 35/106/41
f 38/109/6 42/116/6 44/123/6
f 44/123/5 42/116/5 38/109/5
f 43/118/41 38/117/39 44/124/41
f 44/124/42 38/117/40 43/118/42
f 41/111/5 43/120/5 45/125/5
f 45/125/6 43/120/6 41/111/6
f 41/126/44 46/107/44 42/127/44
f 42/127/43 46/107/43 41/126/43
f 44/123/6 42/116/6 47/128/6
f 47/128/5 42/116/5 44/123/5
f 47/129/45 43/130/41 44/131/41
f 44/131/42 43/130/42 47/129/46
f 43/130/41 47/129/45 45/132/45
f 45/132/46 47/129/46 43/130/42
f 41/111/5 45/125/5 48/133/5
f 48/133/6 45/125/6 41/111/6
f 46/107/44 41/126/44 49/106/44
f 49/106/43 41/126/43 46/107/43
f 50/134/6 42/116/6 46/121/6
f 46/121/5 42/116/5 50/134/5
f 47/128/6 42/116/6 51/135/6
f 51/135/5 42/116/5 47/128/5
f 51/136/47 45/137/45 47/138/45
f 47/138/46 45/137/46 51/136/48
f 45/137/45 51/136/47 48/139/47
f 48/139/48 51/136/48 45/137/46
f 41/111/5 48/133/5 52/140/5
f 52/140/6 48/133/6 41/111/6
f 41/111/5 53/141/5 49/142/5
f 49/142/6 53/141/6 41/111/6
f 54/143/41 46/142/41 49/144/41
f 49/144/42 46/142/42 54/143/42
f 55/145/6 42/116/6 50/134/6
f 50/134/5 42/116/5 55/145/5
f 46/142/41 54/143/41 50/146/41
f 50/146/42 54/143/42 46/142/42
f 51/135/6 42/116/6 56/147/6
f 56/147/5 42/116/5 51/135/5
f 56/148/49 48/149/47 51/150/47
f 51/150/48 48/149/48 56/148/50
f 48/149/47 56/148/49 52/151/49
f 52/151/50 56/148/50 48/149/48
f 41/111/5 52/140/5 57/152/5
f 57/152/6 52/140/6 41/111/6
f 41/111/5 58/153/5 53/141/5
f 53/141/6 58/153/6 41/111/6
f 49/142/5 53/141/5 54/146/5
f 54/146/6 53/141/6 49/142/6
f 59/154/6 42/116/6 55/145/6
f 55/145/5 42/116/5 59/154/5
f 50/107/43 53/155/43 55/156/43
f 55/156/44 53/155/44 50/107/44
f 53/155/43 50/107/43 54/106/43
f 54/106/44 50/107/44 53/155/44
f 56/147/6 42/116/6 60/157/6
f 60/157/5 42/116/5 56/147/5
f 60/158/51 52/159/49 56/160/49
f 56/160/50 52/159/50 60/158/52
f 52/159/49 60/158/51 57/161/51
f 57/161/52 60/158/52 52/159/50
f 41/111/5 57/152/5 58/153/5
f 58/153/6 57/152/6 41/111/6
f 58/162/53 55/163/54 53/164/54
f 53/164/55 55/163/55 58/162/56
f 60/157/6 42/116/6 59/154/6
f 59/154/5 42/116/5 60/157/5
f 55/163/54 58/162/53 59/165/53
f 59/165/56 58/162/56 55/163/55
f 59/166/53 57/167/51 60/168/51
f 60/168/52 57/167/52 59/166/56
f 57/167/51 59/166/53 58/169/53
f 58/169/56 59/166/56 57/167/52
