# SSTK version 0.8.0
# 5
mtllib original-5.mtl
o Group5/mesh9/mesh9-geometry#mesh9-geometry
v -0.360684 0.906347 0.223195
v -0.360684 -0.839245 0.206431
v -0.360684 -0.839245 0.223195
v -0.360684 0.906347 0.206431
v -0.014335 -0.839245 0.223195
v -0.014335 0.906347 0.223195
v -0.014335 0.906347 0.206431
v -0.014335 -0.839245 0.206431
v -0.350117 -0.839245 0.206431
vt 0.022 0.6
vt 0 0
vt 0.022 0
vt 0 0.6
vt -0.022 0.47198
vt -0.022 0
vt 0.589975 0
vt 0.022 0.47198
vt -0.589975 0.6
vt 0 0.47198
vt 0.589975 0.6
vt -0.018 0
vt 0 0.0144
vt -0.022 0.6
vt -0.589975 0
vn -1 0 0
vn 1 0 0
vn 0 -1 0
vn 0 1 0
vn 0 0 1
vn 0 0 -1
usemtl material_0_0
f 1/1/1 2/2/1 3/3/1
f 2/2/1 1/1/1 4/4/1
f 3/3/2 2/2/2 1/1/2
f 4/4/2 1/1/2 2/2/2
f 2/2/3 5/5/3 3/6/3
f 3/6/4 5/5/4 2/2/4
f 5/7/5 1/4/5 3/2/5
f 3/2/6 1/4/6 5/7/6
f 6/8/4 4/2/4 1/3/4
f 1/3/3 4/2/3 6/8/3
f 7/9/6 2/2/6 4/4/6
f 4/4/5 2/2/5 7/9/5
f 2/2/3 8/10/3 5/5/3
f 5/5/4 8/10/4 2/2/4
f 1/4/5 5/7/5 6/11/5
f 6/11/6 5/7/6 1/4/6
f 4/2/4 6/8/4 7/10/4
f 7/10/3 6/8/3 4/2/3
f 2/2/6 7/9/6 9/12/6
f 9/12/5 7/9/5 2/2/5
f 8/10/3 2/2/3 9/13/3
f 9/13/4 2/2/4 8/10/4
f 7/4/2 5/6/2 8/2/2
f 8/2/1 5/6/1 7/4/1
f 5/6/2 7/4/2 6/14/2
f 6/14/1 7/4/1 5/6/1
f 9/12/6 7/9/6 8/15/6
f 8/15/5 7/9/5 9/12/5
